<mxfile>
    <diagram id="s3h5rlslUx3XuELMF_oi" name="tableData Schema">
        <mxGraphModel dx="1420" dy="812" grid="0" gridSize="10" guides="1" tooltips="1" connect="1" arrows="1" fold="1" page="1" pageScale="1" pageWidth="1200" pageHeight="1920" background="#000000" math="0" shadow="1">
            <root>
                <mxCell id="CxYHxv4bn9UVLz-2JbSQ-0"/>
                <mxCell id="CxYHxv4bn9UVLz-2JbSQ-1" parent="CxYHxv4bn9UVLz-2JbSQ-0"/>
                <mxCell id="CxYHxv4bn9UVLz-2JbSQ-12" value="" style="shape=partialRectangle;whiteSpace=wrap;html=1;bottom=1;right=1;left=1;top=0;routingCenterX=-0.5;direction=south;fillColor=none;recursiveResize=0;editable=0;sketch=1;rounded=1;strokeColor=#336600;" parent="CxYHxv4bn9UVLz-2JbSQ-1" vertex="1">
                    <mxGeometry x="10" y="11" width="14" height="36" as="geometry"/>
                </mxCell>
                <mxCell id="CxYHxv4bn9UVLz-2JbSQ-23" value="" style="shape=partialRectangle;whiteSpace=wrap;html=1;bottom=1;right=1;left=1;top=0;routingCenterX=-0.5;direction=north;fillColor=none;recursiveResize=0;editable=0;sketch=1;rounded=1;strokeColor=#336600;" parent="CxYHxv4bn9UVLz-2JbSQ-1" vertex="1">
                    <mxGeometry x="28" y="1834" width="14" height="36" as="geometry"/>
                </mxCell>
                <mxCell id="CxYHxv4bn9UVLz-2JbSQ-24" value="" style="shape=partialRectangle;whiteSpace=wrap;html=1;bottom=1;right=1;left=1;top=0;routingCenterX=-0.5;direction=south;fillColor=none;recursiveResize=0;editable=0;strokeColor=#0000FF;sketch=1;rounded=1;" parent="CxYHxv4bn9UVLz-2JbSQ-1" vertex="1">
                    <mxGeometry x="116" y="88" width="14" height="36" as="geometry"/>
                </mxCell>
                <mxCell id="CxYHxv4bn9UVLz-2JbSQ-25" value="" style="shape=partialRectangle;whiteSpace=wrap;html=1;bottom=1;right=1;left=1;top=0;routingCenterX=-0.5;direction=north;fillColor=none;recursiveResize=0;editable=0;strokeColor=#0000FF;sketch=1;rounded=1;" parent="CxYHxv4bn9UVLz-2JbSQ-1" vertex="1">
                    <mxGeometry x="116" y="484" width="14" height="36" as="geometry"/>
                </mxCell>
                <mxCell id="CxYHxv4bn9UVLz-2JbSQ-29" value="" style="shape=table;html=1;whiteSpace=wrap;startSize=0;container=1;collapsible=0;childLayout=tableLayout;fillColor=none;strokeColor=#CC0066;sketch=1;rounded=1;" parent="CxYHxv4bn9UVLz-2JbSQ-1" vertex="1">
                    <mxGeometry x="272" y="166" width="180" height="120" as="geometry"/>
                </mxCell>
                <mxCell id="CxYHxv4bn9UVLz-2JbSQ-30" value="" style="shape=partialRectangle;html=1;whiteSpace=wrap;collapsible=0;dropTarget=0;pointerEvents=0;fillColor=none;top=0;left=0;bottom=0;right=0;points=[[0,0.5],[1,0.5]];portConstraint=eastwest;strokeColor=#CC0066;sketch=1;rounded=1;" parent="CxYHxv4bn9UVLz-2JbSQ-29" vertex="1">
                    <mxGeometry width="180" height="40" as="geometry"/>
                </mxCell>
                <mxCell id="CxYHxv4bn9UVLz-2JbSQ-31" value="page1" style="shape=partialRectangle;html=1;whiteSpace=wrap;connectable=0;fillColor=none;top=0;left=0;bottom=0;right=0;overflow=hidden;strokeColor=#CC0066;sketch=1;rounded=1;" parent="CxYHxv4bn9UVLz-2JbSQ-30" vertex="1">
                    <mxGeometry width="60" height="40" as="geometry"/>
                </mxCell>
                <mxCell id="CxYHxv4bn9UVLz-2JbSQ-32" value="sheet 1" style="shape=partialRectangle;html=1;whiteSpace=wrap;connectable=0;fillColor=none;top=0;left=0;bottom=0;right=0;overflow=hidden;strokeColor=#CC0066;sketch=1;rounded=1;" parent="CxYHxv4bn9UVLz-2JbSQ-30" vertex="1">
                    <mxGeometry x="60" width="60" height="40" as="geometry"/>
                </mxCell>
                <mxCell id="CxYHxv4bn9UVLz-2JbSQ-33" value="" style="shape=partialRectangle;html=1;whiteSpace=wrap;connectable=0;fillColor=none;top=0;left=0;bottom=0;right=0;overflow=hidden;strokeColor=#CC0066;sketch=1;rounded=1;" parent="CxYHxv4bn9UVLz-2JbSQ-30" vertex="1">
                    <mxGeometry x="120" width="60" height="40" as="geometry"/>
                </mxCell>
                <mxCell id="CxYHxv4bn9UVLz-2JbSQ-34" value="" style="shape=partialRectangle;html=1;whiteSpace=wrap;collapsible=0;dropTarget=0;pointerEvents=0;fillColor=none;top=0;left=0;bottom=0;right=0;points=[[0,0.5],[1,0.5]];portConstraint=eastwest;strokeColor=#CC0066;sketch=1;rounded=1;" parent="CxYHxv4bn9UVLz-2JbSQ-29" vertex="1">
                    <mxGeometry y="40" width="180" height="40" as="geometry"/>
                </mxCell>
                <mxCell id="CxYHxv4bn9UVLz-2JbSQ-35" value="" style="shape=partialRectangle;html=1;whiteSpace=wrap;connectable=0;fillColor=none;top=0;left=0;bottom=0;right=0;overflow=hidden;strokeColor=#CC0066;sketch=1;rounded=1;" parent="CxYHxv4bn9UVLz-2JbSQ-34" vertex="1">
                    <mxGeometry width="60" height="40" as="geometry"/>
                </mxCell>
                <mxCell id="CxYHxv4bn9UVLz-2JbSQ-36" value="" style="shape=partialRectangle;html=1;whiteSpace=wrap;connectable=0;fillColor=none;top=0;left=0;bottom=0;right=0;overflow=hidden;strokeColor=#CC0066;sketch=1;rounded=1;" parent="CxYHxv4bn9UVLz-2JbSQ-34" vertex="1">
                    <mxGeometry x="60" width="60" height="40" as="geometry"/>
                </mxCell>
                <mxCell id="CxYHxv4bn9UVLz-2JbSQ-37" value="" style="shape=partialRectangle;html=1;whiteSpace=wrap;connectable=0;fillColor=none;top=0;left=0;bottom=0;right=0;overflow=hidden;strokeColor=#CC0066;sketch=1;rounded=1;" parent="CxYHxv4bn9UVLz-2JbSQ-34" vertex="1">
                    <mxGeometry x="120" width="60" height="40" as="geometry"/>
                </mxCell>
                <mxCell id="CxYHxv4bn9UVLz-2JbSQ-38" value="" style="shape=partialRectangle;html=1;whiteSpace=wrap;collapsible=0;dropTarget=0;pointerEvents=0;fillColor=none;top=0;left=0;bottom=0;right=0;points=[[0,0.5],[1,0.5]];portConstraint=eastwest;strokeColor=#CC0066;sketch=1;rounded=1;" parent="CxYHxv4bn9UVLz-2JbSQ-29" vertex="1">
                    <mxGeometry y="80" width="180" height="40" as="geometry"/>
                </mxCell>
                <mxCell id="CxYHxv4bn9UVLz-2JbSQ-39" value="" style="shape=partialRectangle;html=1;whiteSpace=wrap;connectable=0;fillColor=none;top=0;left=0;bottom=0;right=0;overflow=hidden;strokeColor=#CC0066;sketch=1;rounded=1;" parent="CxYHxv4bn9UVLz-2JbSQ-38" vertex="1">
                    <mxGeometry width="60" height="40" as="geometry"/>
                </mxCell>
                <mxCell id="CxYHxv4bn9UVLz-2JbSQ-40" value="" style="shape=partialRectangle;html=1;whiteSpace=wrap;connectable=0;fillColor=none;top=0;left=0;bottom=0;right=0;overflow=hidden;strokeColor=#CC0066;sketch=1;rounded=1;" parent="CxYHxv4bn9UVLz-2JbSQ-38" vertex="1">
                    <mxGeometry x="60" width="60" height="40" as="geometry"/>
                </mxCell>
                <mxCell id="CxYHxv4bn9UVLz-2JbSQ-41" value="" style="shape=partialRectangle;html=1;whiteSpace=wrap;connectable=0;fillColor=none;top=0;left=0;bottom=0;right=0;overflow=hidden;strokeColor=#CC0066;sketch=1;rounded=1;" parent="CxYHxv4bn9UVLz-2JbSQ-38" vertex="1">
                    <mxGeometry x="120" width="60" height="40" as="geometry"/>
                </mxCell>
                <mxCell id="CxYHxv4bn9UVLz-2JbSQ-42" value="" style="shape=partialRectangle;whiteSpace=wrap;html=1;bottom=1;right=1;left=1;top=0;routingCenterX=-0.5;direction=south;fillColor=none;recursiveResize=0;editable=0;strokeColor=#CC0066;sketch=1;rounded=1;" parent="CxYHxv4bn9UVLz-2JbSQ-1" vertex="1">
                    <mxGeometry x="226" y="128" width="14" height="36" as="geometry"/>
                </mxCell>
                <mxCell id="CxYHxv4bn9UVLz-2JbSQ-43" value="" style="shape=partialRectangle;whiteSpace=wrap;html=1;bottom=1;right=1;left=1;top=0;routingCenterX=-0.5;direction=north;fillColor=none;recursiveResize=0;editable=0;strokeColor=#CC0066;sketch=1;rounded=1;" parent="CxYHxv4bn9UVLz-2JbSQ-1" vertex="1">
                    <mxGeometry x="226" y="286" width="14" height="36" as="geometry"/>
                </mxCell>
                <mxCell id="CxYHxv4bn9UVLz-2JbSQ-46" value="" style="shape=table;html=1;whiteSpace=wrap;startSize=0;container=1;collapsible=0;childLayout=tableLayout;fillColor=none;strokeColor=#CC0066;sketch=1;rounded=1;" parent="CxYHxv4bn9UVLz-2JbSQ-1" vertex="1">
                    <mxGeometry x="272" y="367" width="300" height="80" as="geometry"/>
                </mxCell>
                <mxCell id="CxYHxv4bn9UVLz-2JbSQ-47" value="" style="shape=partialRectangle;html=1;whiteSpace=wrap;collapsible=0;dropTarget=0;pointerEvents=0;fillColor=none;top=0;left=0;bottom=0;right=0;points=[[0,0.5],[1,0.5]];portConstraint=eastwest;strokeColor=#CC0066;sketch=1;rounded=1;" parent="CxYHxv4bn9UVLz-2JbSQ-46" vertex="1">
                    <mxGeometry width="300" height="40" as="geometry"/>
                </mxCell>
                <mxCell id="CxYHxv4bn9UVLz-2JbSQ-69" style="shape=partialRectangle;html=1;whiteSpace=wrap;connectable=0;fillColor=none;top=0;left=0;bottom=0;right=0;overflow=hidden;strokeColor=#CC0066;sketch=1;rounded=1;" parent="CxYHxv4bn9UVLz-2JbSQ-47" vertex="1">
                    <mxGeometry width="60" height="40" as="geometry"/>
                </mxCell>
                <mxCell id="CxYHxv4bn9UVLz-2JbSQ-67" style="shape=partialRectangle;html=1;whiteSpace=wrap;connectable=0;fillColor=none;top=0;left=0;bottom=0;right=0;overflow=hidden;strokeColor=#CC0066;sketch=1;rounded=1;" parent="CxYHxv4bn9UVLz-2JbSQ-47" vertex="1">
                    <mxGeometry x="60" width="60" height="40" as="geometry"/>
                </mxCell>
                <mxCell id="CxYHxv4bn9UVLz-2JbSQ-48" value="page1" style="shape=partialRectangle;html=1;whiteSpace=wrap;connectable=0;fillColor=none;top=0;left=0;bottom=0;right=0;overflow=hidden;strokeColor=#CC0066;sketch=1;rounded=1;" parent="CxYHxv4bn9UVLz-2JbSQ-47" vertex="1">
                    <mxGeometry x="120" width="60" height="40" as="geometry"/>
                </mxCell>
                <mxCell id="CxYHxv4bn9UVLz-2JbSQ-49" value="sheet 2" style="shape=partialRectangle;html=1;whiteSpace=wrap;connectable=0;fillColor=none;top=0;left=0;bottom=0;right=0;overflow=hidden;strokeColor=#CC0066;sketch=1;rounded=1;" parent="CxYHxv4bn9UVLz-2JbSQ-47" vertex="1">
                    <mxGeometry x="180" width="60" height="40" as="geometry"/>
                </mxCell>
                <mxCell id="CxYHxv4bn9UVLz-2JbSQ-50" value="" style="shape=partialRectangle;html=1;whiteSpace=wrap;connectable=0;fillColor=none;top=0;left=0;bottom=0;right=0;overflow=hidden;strokeColor=#CC0066;sketch=1;rounded=1;" parent="CxYHxv4bn9UVLz-2JbSQ-47" vertex="1">
                    <mxGeometry x="240" width="60" height="40" as="geometry"/>
                </mxCell>
                <mxCell id="CxYHxv4bn9UVLz-2JbSQ-51" value="" style="shape=partialRectangle;html=1;whiteSpace=wrap;collapsible=0;dropTarget=0;pointerEvents=0;fillColor=none;top=0;left=0;bottom=0;right=0;points=[[0,0.5],[1,0.5]];portConstraint=eastwest;strokeColor=#CC0066;sketch=1;rounded=1;" parent="CxYHxv4bn9UVLz-2JbSQ-46" vertex="1">
                    <mxGeometry y="40" width="300" height="40" as="geometry"/>
                </mxCell>
                <mxCell id="CxYHxv4bn9UVLz-2JbSQ-70" style="shape=partialRectangle;html=1;whiteSpace=wrap;connectable=0;fillColor=none;top=0;left=0;bottom=0;right=0;overflow=hidden;strokeColor=#CC0066;sketch=1;rounded=1;" parent="CxYHxv4bn9UVLz-2JbSQ-51" vertex="1">
                    <mxGeometry width="60" height="40" as="geometry"/>
                </mxCell>
                <mxCell id="CxYHxv4bn9UVLz-2JbSQ-68" style="shape=partialRectangle;html=1;whiteSpace=wrap;connectable=0;fillColor=none;top=0;left=0;bottom=0;right=0;overflow=hidden;strokeColor=#CC0066;sketch=1;rounded=1;" parent="CxYHxv4bn9UVLz-2JbSQ-51" vertex="1">
                    <mxGeometry x="60" width="60" height="40" as="geometry"/>
                </mxCell>
                <mxCell id="CxYHxv4bn9UVLz-2JbSQ-52" value="" style="shape=partialRectangle;html=1;whiteSpace=wrap;connectable=0;fillColor=none;top=0;left=0;bottom=0;right=0;overflow=hidden;strokeColor=#CC0066;sketch=1;rounded=1;" parent="CxYHxv4bn9UVLz-2JbSQ-51" vertex="1">
                    <mxGeometry x="120" width="60" height="40" as="geometry"/>
                </mxCell>
                <mxCell id="CxYHxv4bn9UVLz-2JbSQ-53" value="" style="shape=partialRectangle;html=1;whiteSpace=wrap;connectable=0;fillColor=none;top=0;left=0;bottom=0;right=0;overflow=hidden;strokeColor=#CC0066;sketch=1;rounded=1;" parent="CxYHxv4bn9UVLz-2JbSQ-51" vertex="1">
                    <mxGeometry x="180" width="60" height="40" as="geometry"/>
                </mxCell>
                <mxCell id="CxYHxv4bn9UVLz-2JbSQ-54" value="" style="shape=partialRectangle;html=1;whiteSpace=wrap;connectable=0;fillColor=none;top=0;left=0;bottom=0;right=0;overflow=hidden;strokeColor=#CC0066;sketch=1;rounded=1;" parent="CxYHxv4bn9UVLz-2JbSQ-51" vertex="1">
                    <mxGeometry x="240" width="60" height="40" as="geometry"/>
                </mxCell>
                <mxCell id="CxYHxv4bn9UVLz-2JbSQ-59" value="" style="shape=partialRectangle;whiteSpace=wrap;html=1;bottom=1;right=1;left=1;top=0;routingCenterX=-0.5;direction=south;fillColor=none;recursiveResize=0;editable=0;strokeColor=#CC0066;sketch=1;rounded=1;" parent="CxYHxv4bn9UVLz-2JbSQ-1" vertex="1">
                    <mxGeometry x="226" y="329" width="14" height="36" as="geometry"/>
                </mxCell>
                <mxCell id="CxYHxv4bn9UVLz-2JbSQ-60" value="" style="shape=partialRectangle;whiteSpace=wrap;html=1;bottom=1;right=1;left=1;top=0;routingCenterX=-0.5;direction=north;fillColor=none;recursiveResize=0;editable=0;strokeColor=#CC0066;sketch=1;rounded=1;" parent="CxYHxv4bn9UVLz-2JbSQ-1" vertex="1">
                    <mxGeometry x="226" y="452" width="14" height="36" as="geometry"/>
                </mxCell>
                <mxCell id="CxYHxv4bn9UVLz-2JbSQ-65" value="" style="shape=curlyBracket;whiteSpace=wrap;html=1;strokeColor=#0000FF;fillColor=none;direction=west;sketch=1;rounded=1;" parent="CxYHxv4bn9UVLz-2JbSQ-1" vertex="1">
                    <mxGeometry x="699" y="102" width="20" height="451" as="geometry"/>
                </mxCell>
                <mxCell id="CxYHxv4bn9UVLz-2JbSQ-66" value="page 1" style="text;strokeColor=none;fillColor=none;html=1;fontSize=24;fontStyle=1;verticalAlign=middle;align=center;sketch=1;rounded=1;" parent="CxYHxv4bn9UVLz-2JbSQ-1" vertex="1">
                    <mxGeometry x="751" y="307.5" width="100" height="40" as="geometry"/>
                </mxCell>
                <mxCell id="CxYHxv4bn9UVLz-2JbSQ-71" value="" style="shape=partialRectangle;whiteSpace=wrap;html=1;bottom=1;right=1;left=1;top=0;routingCenterX=-0.5;direction=south;fillColor=none;recursiveResize=0;editable=0;strokeColor=#0000FF;sketch=1;rounded=1;" parent="CxYHxv4bn9UVLz-2JbSQ-1" vertex="1">
                    <mxGeometry x="116" y="631" width="14" height="36" as="geometry"/>
                </mxCell>
                <mxCell id="CxYHxv4bn9UVLz-2JbSQ-72" value="" style="shape=partialRectangle;whiteSpace=wrap;html=1;bottom=1;right=1;left=1;top=0;routingCenterX=-0.5;direction=north;fillColor=none;recursiveResize=0;editable=0;strokeColor=#0000FF;sketch=1;rounded=1;" parent="CxYHxv4bn9UVLz-2JbSQ-1" vertex="1">
                    <mxGeometry x="124" y="1266" width="14" height="36" as="geometry"/>
                </mxCell>
                <mxCell id="CxYHxv4bn9UVLz-2JbSQ-73" value="" style="shape=table;html=1;whiteSpace=wrap;startSize=0;container=1;collapsible=0;childLayout=tableLayout;fillColor=none;strokeColor=#CC0066;sketch=1;rounded=1;" parent="CxYHxv4bn9UVLz-2JbSQ-1" vertex="1">
                    <mxGeometry x="269" y="704" width="180" height="120" as="geometry"/>
                </mxCell>
                <mxCell id="CxYHxv4bn9UVLz-2JbSQ-74" value="" style="shape=partialRectangle;html=1;whiteSpace=wrap;collapsible=0;dropTarget=0;pointerEvents=0;fillColor=none;top=0;left=0;bottom=0;right=0;points=[[0,0.5],[1,0.5]];portConstraint=eastwest;strokeColor=#CC0066;sketch=1;rounded=1;" parent="CxYHxv4bn9UVLz-2JbSQ-73" vertex="1">
                    <mxGeometry width="180" height="40" as="geometry"/>
                </mxCell>
                <mxCell id="CxYHxv4bn9UVLz-2JbSQ-75" value="page 2" style="shape=partialRectangle;html=1;whiteSpace=wrap;connectable=0;fillColor=none;top=0;left=0;bottom=0;right=0;overflow=hidden;strokeColor=#CC0066;sketch=1;rounded=1;" parent="CxYHxv4bn9UVLz-2JbSQ-74" vertex="1">
                    <mxGeometry width="60" height="40" as="geometry"/>
                </mxCell>
                <mxCell id="CxYHxv4bn9UVLz-2JbSQ-76" value="sheet 3" style="shape=partialRectangle;html=1;whiteSpace=wrap;connectable=0;fillColor=none;top=0;left=0;bottom=0;right=0;overflow=hidden;strokeColor=#CC0066;sketch=1;rounded=1;" parent="CxYHxv4bn9UVLz-2JbSQ-74" vertex="1">
                    <mxGeometry x="60" width="60" height="40" as="geometry"/>
                </mxCell>
                <mxCell id="CxYHxv4bn9UVLz-2JbSQ-77" value="" style="shape=partialRectangle;html=1;whiteSpace=wrap;connectable=0;fillColor=none;top=0;left=0;bottom=0;right=0;overflow=hidden;strokeColor=#CC0066;sketch=1;rounded=1;" parent="CxYHxv4bn9UVLz-2JbSQ-74" vertex="1">
                    <mxGeometry x="120" width="60" height="40" as="geometry"/>
                </mxCell>
                <mxCell id="CxYHxv4bn9UVLz-2JbSQ-78" value="" style="shape=partialRectangle;html=1;whiteSpace=wrap;collapsible=0;dropTarget=0;pointerEvents=0;fillColor=none;top=0;left=0;bottom=0;right=0;points=[[0,0.5],[1,0.5]];portConstraint=eastwest;strokeColor=#CC0066;sketch=1;rounded=1;" parent="CxYHxv4bn9UVLz-2JbSQ-73" vertex="1">
                    <mxGeometry y="40" width="180" height="40" as="geometry"/>
                </mxCell>
                <mxCell id="CxYHxv4bn9UVLz-2JbSQ-79" value="" style="shape=partialRectangle;html=1;whiteSpace=wrap;connectable=0;fillColor=none;top=0;left=0;bottom=0;right=0;overflow=hidden;strokeColor=#CC0066;sketch=1;rounded=1;" parent="CxYHxv4bn9UVLz-2JbSQ-78" vertex="1">
                    <mxGeometry width="60" height="40" as="geometry"/>
                </mxCell>
                <mxCell id="CxYHxv4bn9UVLz-2JbSQ-80" value="" style="shape=partialRectangle;html=1;whiteSpace=wrap;connectable=0;fillColor=none;top=0;left=0;bottom=0;right=0;overflow=hidden;strokeColor=#CC0066;sketch=1;rounded=1;" parent="CxYHxv4bn9UVLz-2JbSQ-78" vertex="1">
                    <mxGeometry x="60" width="60" height="40" as="geometry"/>
                </mxCell>
                <mxCell id="CxYHxv4bn9UVLz-2JbSQ-81" value="" style="shape=partialRectangle;html=1;whiteSpace=wrap;connectable=0;fillColor=none;top=0;left=0;bottom=0;right=0;overflow=hidden;strokeColor=#CC0066;sketch=1;rounded=1;" parent="CxYHxv4bn9UVLz-2JbSQ-78" vertex="1">
                    <mxGeometry x="120" width="60" height="40" as="geometry"/>
                </mxCell>
                <mxCell id="CxYHxv4bn9UVLz-2JbSQ-82" value="" style="shape=partialRectangle;html=1;whiteSpace=wrap;collapsible=0;dropTarget=0;pointerEvents=0;fillColor=none;top=0;left=0;bottom=0;right=0;points=[[0,0.5],[1,0.5]];portConstraint=eastwest;strokeColor=#CC0066;sketch=1;rounded=1;" parent="CxYHxv4bn9UVLz-2JbSQ-73" vertex="1">
                    <mxGeometry y="80" width="180" height="40" as="geometry"/>
                </mxCell>
                <mxCell id="CxYHxv4bn9UVLz-2JbSQ-83" value="" style="shape=partialRectangle;html=1;whiteSpace=wrap;connectable=0;fillColor=none;top=0;left=0;bottom=0;right=0;overflow=hidden;strokeColor=#CC0066;sketch=1;rounded=1;" parent="CxYHxv4bn9UVLz-2JbSQ-82" vertex="1">
                    <mxGeometry width="60" height="40" as="geometry"/>
                </mxCell>
                <mxCell id="CxYHxv4bn9UVLz-2JbSQ-84" value="" style="shape=partialRectangle;html=1;whiteSpace=wrap;connectable=0;fillColor=none;top=0;left=0;bottom=0;right=0;overflow=hidden;strokeColor=#CC0066;sketch=1;rounded=1;" parent="CxYHxv4bn9UVLz-2JbSQ-82" vertex="1">
                    <mxGeometry x="60" width="60" height="40" as="geometry"/>
                </mxCell>
                <mxCell id="CxYHxv4bn9UVLz-2JbSQ-85" value="" style="shape=partialRectangle;html=1;whiteSpace=wrap;connectable=0;fillColor=none;top=0;left=0;bottom=0;right=0;overflow=hidden;strokeColor=#CC0066;sketch=1;rounded=1;" parent="CxYHxv4bn9UVLz-2JbSQ-82" vertex="1">
                    <mxGeometry x="120" width="60" height="40" as="geometry"/>
                </mxCell>
                <mxCell id="CxYHxv4bn9UVLz-2JbSQ-86" value="" style="shape=partialRectangle;whiteSpace=wrap;html=1;bottom=1;right=1;left=1;top=0;routingCenterX=-0.5;direction=south;fillColor=none;recursiveResize=0;editable=0;strokeColor=#CC0066;sketch=1;rounded=1;" parent="CxYHxv4bn9UVLz-2JbSQ-1" vertex="1">
                    <mxGeometry x="223" y="666" width="14" height="36" as="geometry"/>
                </mxCell>
                <mxCell id="CxYHxv4bn9UVLz-2JbSQ-87" value="" style="shape=partialRectangle;whiteSpace=wrap;html=1;bottom=1;right=1;left=1;top=0;routingCenterX=-0.5;direction=north;fillColor=none;recursiveResize=0;editable=0;strokeColor=#CC0066;sketch=1;rounded=1;" parent="CxYHxv4bn9UVLz-2JbSQ-1" vertex="1">
                    <mxGeometry x="223" y="824" width="14" height="36" as="geometry"/>
                </mxCell>
                <mxCell id="CxYHxv4bn9UVLz-2JbSQ-88" value="" style="shape=table;html=1;whiteSpace=wrap;startSize=0;container=1;collapsible=0;childLayout=tableLayout;fillColor=none;strokeColor=#CC0066;sketch=1;rounded=1;" parent="CxYHxv4bn9UVLz-2JbSQ-1" vertex="1">
                    <mxGeometry x="269" y="905" width="300" height="80" as="geometry"/>
                </mxCell>
                <mxCell id="CxYHxv4bn9UVLz-2JbSQ-89" value="" style="shape=partialRectangle;html=1;whiteSpace=wrap;collapsible=0;dropTarget=0;pointerEvents=0;fillColor=none;top=0;left=0;bottom=0;right=0;points=[[0,0.5],[1,0.5]];portConstraint=eastwest;strokeColor=#CC0066;sketch=1;rounded=1;" parent="CxYHxv4bn9UVLz-2JbSQ-88" vertex="1">
                    <mxGeometry width="300" height="40" as="geometry"/>
                </mxCell>
                <mxCell id="CxYHxv4bn9UVLz-2JbSQ-90" style="shape=partialRectangle;html=1;whiteSpace=wrap;connectable=0;fillColor=none;top=0;left=0;bottom=0;right=0;overflow=hidden;strokeColor=#CC0066;sketch=1;rounded=1;" parent="CxYHxv4bn9UVLz-2JbSQ-89" vertex="1">
                    <mxGeometry width="60" height="40" as="geometry"/>
                </mxCell>
                <mxCell id="CxYHxv4bn9UVLz-2JbSQ-91" style="shape=partialRectangle;html=1;whiteSpace=wrap;connectable=0;fillColor=none;top=0;left=0;bottom=0;right=0;overflow=hidden;strokeColor=#CC0066;sketch=1;rounded=1;" parent="CxYHxv4bn9UVLz-2JbSQ-89" vertex="1">
                    <mxGeometry x="60" width="60" height="40" as="geometry"/>
                </mxCell>
                <mxCell id="CxYHxv4bn9UVLz-2JbSQ-92" value="page 2" style="shape=partialRectangle;html=1;whiteSpace=wrap;connectable=0;fillColor=none;top=0;left=0;bottom=0;right=0;overflow=hidden;strokeColor=#CC0066;sketch=1;rounded=1;" parent="CxYHxv4bn9UVLz-2JbSQ-89" vertex="1">
                    <mxGeometry x="120" width="60" height="40" as="geometry"/>
                </mxCell>
                <mxCell id="CxYHxv4bn9UVLz-2JbSQ-93" value="sheet 4" style="shape=partialRectangle;html=1;whiteSpace=wrap;connectable=0;fillColor=none;top=0;left=0;bottom=0;right=0;overflow=hidden;strokeColor=#CC0066;sketch=1;rounded=1;" parent="CxYHxv4bn9UVLz-2JbSQ-89" vertex="1">
                    <mxGeometry x="180" width="60" height="40" as="geometry"/>
                </mxCell>
                <mxCell id="CxYHxv4bn9UVLz-2JbSQ-94" value="" style="shape=partialRectangle;html=1;whiteSpace=wrap;connectable=0;fillColor=none;top=0;left=0;bottom=0;right=0;overflow=hidden;strokeColor=#CC0066;sketch=1;rounded=1;" parent="CxYHxv4bn9UVLz-2JbSQ-89" vertex="1">
                    <mxGeometry x="240" width="60" height="40" as="geometry"/>
                </mxCell>
                <mxCell id="CxYHxv4bn9UVLz-2JbSQ-95" value="" style="shape=partialRectangle;html=1;whiteSpace=wrap;collapsible=0;dropTarget=0;pointerEvents=0;fillColor=none;top=0;left=0;bottom=0;right=0;points=[[0,0.5],[1,0.5]];portConstraint=eastwest;strokeColor=#CC0066;sketch=1;rounded=1;" parent="CxYHxv4bn9UVLz-2JbSQ-88" vertex="1">
                    <mxGeometry y="40" width="300" height="40" as="geometry"/>
                </mxCell>
                <mxCell id="CxYHxv4bn9UVLz-2JbSQ-96" style="shape=partialRectangle;html=1;whiteSpace=wrap;connectable=0;fillColor=none;top=0;left=0;bottom=0;right=0;overflow=hidden;strokeColor=#CC0066;sketch=1;rounded=1;" parent="CxYHxv4bn9UVLz-2JbSQ-95" vertex="1">
                    <mxGeometry width="60" height="40" as="geometry"/>
                </mxCell>
                <mxCell id="CxYHxv4bn9UVLz-2JbSQ-97" style="shape=partialRectangle;html=1;whiteSpace=wrap;connectable=0;fillColor=none;top=0;left=0;bottom=0;right=0;overflow=hidden;strokeColor=#CC0066;sketch=1;rounded=1;" parent="CxYHxv4bn9UVLz-2JbSQ-95" vertex="1">
                    <mxGeometry x="60" width="60" height="40" as="geometry"/>
                </mxCell>
                <mxCell id="CxYHxv4bn9UVLz-2JbSQ-98" value="" style="shape=partialRectangle;html=1;whiteSpace=wrap;connectable=0;fillColor=none;top=0;left=0;bottom=0;right=0;overflow=hidden;strokeColor=#CC0066;sketch=1;rounded=1;" parent="CxYHxv4bn9UVLz-2JbSQ-95" vertex="1">
                    <mxGeometry x="120" width="60" height="40" as="geometry"/>
                </mxCell>
                <mxCell id="CxYHxv4bn9UVLz-2JbSQ-99" value="" style="shape=partialRectangle;html=1;whiteSpace=wrap;connectable=0;fillColor=none;top=0;left=0;bottom=0;right=0;overflow=hidden;strokeColor=#CC0066;sketch=1;rounded=1;" parent="CxYHxv4bn9UVLz-2JbSQ-95" vertex="1">
                    <mxGeometry x="180" width="60" height="40" as="geometry"/>
                </mxCell>
                <mxCell id="CxYHxv4bn9UVLz-2JbSQ-100" value="" style="shape=partialRectangle;html=1;whiteSpace=wrap;connectable=0;fillColor=none;top=0;left=0;bottom=0;right=0;overflow=hidden;strokeColor=#CC0066;sketch=1;rounded=1;" parent="CxYHxv4bn9UVLz-2JbSQ-95" vertex="1">
                    <mxGeometry x="240" width="60" height="40" as="geometry"/>
                </mxCell>
                <mxCell id="CxYHxv4bn9UVLz-2JbSQ-101" value="" style="shape=partialRectangle;whiteSpace=wrap;html=1;bottom=1;right=1;left=1;top=0;routingCenterX=-0.5;direction=south;fillColor=none;recursiveResize=0;editable=0;strokeColor=#CC0066;sketch=1;rounded=1;" parent="CxYHxv4bn9UVLz-2JbSQ-1" vertex="1">
                    <mxGeometry x="223" y="867" width="14" height="36" as="geometry"/>
                </mxCell>
                <mxCell id="CxYHxv4bn9UVLz-2JbSQ-102" value="" style="shape=partialRectangle;whiteSpace=wrap;html=1;bottom=1;right=1;left=1;top=0;routingCenterX=-0.5;direction=north;fillColor=none;recursiveResize=0;editable=0;strokeColor=#CC0066;sketch=1;rounded=1;" parent="CxYHxv4bn9UVLz-2JbSQ-1" vertex="1">
                    <mxGeometry x="223" y="990" width="14" height="36" as="geometry"/>
                </mxCell>
                <mxCell id="CxYHxv4bn9UVLz-2JbSQ-103" value="" style="shape=curlyBracket;whiteSpace=wrap;html=1;strokeColor=#0000FF;fillColor=none;direction=west;sketch=1;rounded=1;" parent="CxYHxv4bn9UVLz-2JbSQ-1" vertex="1">
                    <mxGeometry x="699" y="640" width="20" height="693" as="geometry"/>
                </mxCell>
                <mxCell id="CxYHxv4bn9UVLz-2JbSQ-104" value="page 2" style="text;strokeColor=none;fillColor=none;html=1;fontSize=24;fontStyle=1;verticalAlign=middle;align=center;sketch=1;rounded=1;" parent="CxYHxv4bn9UVLz-2JbSQ-1" vertex="1">
                    <mxGeometry x="745" y="966.5" width="100" height="40" as="geometry"/>
                </mxCell>
                <mxCell id="CxYHxv4bn9UVLz-2JbSQ-107" value="" style="shape=partialRectangle;whiteSpace=wrap;html=1;bottom=1;right=1;left=1;top=0;routingCenterX=-0.5;direction=south;fillColor=none;recursiveResize=0;editable=0;strokeColor=#0000FF;sketch=1;rounded=1;" parent="CxYHxv4bn9UVLz-2JbSQ-1" vertex="1">
                    <mxGeometry x="129" y="1444" width="14" height="36" as="geometry"/>
                </mxCell>
                <mxCell id="CxYHxv4bn9UVLz-2JbSQ-108" value="" style="shape=partialRectangle;whiteSpace=wrap;html=1;bottom=1;right=1;left=1;top=0;routingCenterX=-0.5;direction=north;fillColor=none;recursiveResize=0;editable=0;strokeColor=#0000FF;sketch=1;rounded=1;" parent="CxYHxv4bn9UVLz-2JbSQ-1" vertex="1">
                    <mxGeometry x="129" y="1680" width="14" height="36" as="geometry"/>
                </mxCell>
                <mxCell id="CxYHxv4bn9UVLz-2JbSQ-109" value="" style="shape=table;html=1;whiteSpace=wrap;startSize=0;container=1;collapsible=0;childLayout=tableLayout;fillColor=none;strokeColor=#CC0066;sketch=1;rounded=1;" parent="CxYHxv4bn9UVLz-2JbSQ-1" vertex="1">
                    <mxGeometry x="282" y="1517" width="180" height="120" as="geometry"/>
                </mxCell>
                <mxCell id="CxYHxv4bn9UVLz-2JbSQ-110" value="" style="shape=partialRectangle;html=1;whiteSpace=wrap;collapsible=0;dropTarget=0;pointerEvents=0;fillColor=none;top=0;left=0;bottom=0;right=0;points=[[0,0.5],[1,0.5]];portConstraint=eastwest;strokeColor=#CC0066;sketch=1;rounded=1;" parent="CxYHxv4bn9UVLz-2JbSQ-109" vertex="1">
                    <mxGeometry width="180" height="40" as="geometry"/>
                </mxCell>
                <mxCell id="CxYHxv4bn9UVLz-2JbSQ-111" value="page 3" style="shape=partialRectangle;html=1;whiteSpace=wrap;connectable=0;fillColor=none;top=0;left=0;bottom=0;right=0;overflow=hidden;strokeColor=#CC0066;sketch=1;rounded=1;" parent="CxYHxv4bn9UVLz-2JbSQ-110" vertex="1">
                    <mxGeometry width="60" height="40" as="geometry"/>
                </mxCell>
                <mxCell id="CxYHxv4bn9UVLz-2JbSQ-112" value="sheet 5" style="shape=partialRectangle;html=1;whiteSpace=wrap;connectable=0;fillColor=none;top=0;left=0;bottom=0;right=0;overflow=hidden;strokeColor=#CC0066;sketch=1;rounded=1;" parent="CxYHxv4bn9UVLz-2JbSQ-110" vertex="1">
                    <mxGeometry x="60" width="60" height="40" as="geometry"/>
                </mxCell>
                <mxCell id="CxYHxv4bn9UVLz-2JbSQ-113" value="" style="shape=partialRectangle;html=1;whiteSpace=wrap;connectable=0;fillColor=none;top=0;left=0;bottom=0;right=0;overflow=hidden;strokeColor=#CC0066;sketch=1;rounded=1;" parent="CxYHxv4bn9UVLz-2JbSQ-110" vertex="1">
                    <mxGeometry x="120" width="60" height="40" as="geometry"/>
                </mxCell>
                <mxCell id="CxYHxv4bn9UVLz-2JbSQ-114" value="" style="shape=partialRectangle;html=1;whiteSpace=wrap;collapsible=0;dropTarget=0;pointerEvents=0;fillColor=none;top=0;left=0;bottom=0;right=0;points=[[0,0.5],[1,0.5]];portConstraint=eastwest;strokeColor=#CC0066;sketch=1;rounded=1;" parent="CxYHxv4bn9UVLz-2JbSQ-109" vertex="1">
                    <mxGeometry y="40" width="180" height="40" as="geometry"/>
                </mxCell>
                <mxCell id="CxYHxv4bn9UVLz-2JbSQ-115" value="" style="shape=partialRectangle;html=1;whiteSpace=wrap;connectable=0;fillColor=none;top=0;left=0;bottom=0;right=0;overflow=hidden;strokeColor=#CC0066;sketch=1;rounded=1;" parent="CxYHxv4bn9UVLz-2JbSQ-114" vertex="1">
                    <mxGeometry width="60" height="40" as="geometry"/>
                </mxCell>
                <mxCell id="CxYHxv4bn9UVLz-2JbSQ-116" value="" style="shape=partialRectangle;html=1;whiteSpace=wrap;connectable=0;fillColor=none;top=0;left=0;bottom=0;right=0;overflow=hidden;strokeColor=#CC0066;sketch=1;rounded=1;" parent="CxYHxv4bn9UVLz-2JbSQ-114" vertex="1">
                    <mxGeometry x="60" width="60" height="40" as="geometry"/>
                </mxCell>
                <mxCell id="CxYHxv4bn9UVLz-2JbSQ-117" value="" style="shape=partialRectangle;html=1;whiteSpace=wrap;connectable=0;fillColor=none;top=0;left=0;bottom=0;right=0;overflow=hidden;strokeColor=#CC0066;sketch=1;rounded=1;" parent="CxYHxv4bn9UVLz-2JbSQ-114" vertex="1">
                    <mxGeometry x="120" width="60" height="40" as="geometry"/>
                </mxCell>
                <mxCell id="CxYHxv4bn9UVLz-2JbSQ-118" value="" style="shape=partialRectangle;html=1;whiteSpace=wrap;collapsible=0;dropTarget=0;pointerEvents=0;fillColor=none;top=0;left=0;bottom=0;right=0;points=[[0,0.5],[1,0.5]];portConstraint=eastwest;strokeColor=#CC0066;sketch=1;rounded=1;" parent="CxYHxv4bn9UVLz-2JbSQ-109" vertex="1">
                    <mxGeometry y="80" width="180" height="40" as="geometry"/>
                </mxCell>
                <mxCell id="CxYHxv4bn9UVLz-2JbSQ-119" value="" style="shape=partialRectangle;html=1;whiteSpace=wrap;connectable=0;fillColor=none;top=0;left=0;bottom=0;right=0;overflow=hidden;strokeColor=#CC0066;sketch=1;rounded=1;" parent="CxYHxv4bn9UVLz-2JbSQ-118" vertex="1">
                    <mxGeometry width="60" height="40" as="geometry"/>
                </mxCell>
                <mxCell id="CxYHxv4bn9UVLz-2JbSQ-120" value="" style="shape=partialRectangle;html=1;whiteSpace=wrap;connectable=0;fillColor=none;top=0;left=0;bottom=0;right=0;overflow=hidden;strokeColor=#CC0066;sketch=1;rounded=1;" parent="CxYHxv4bn9UVLz-2JbSQ-118" vertex="1">
                    <mxGeometry x="60" width="60" height="40" as="geometry"/>
                </mxCell>
                <mxCell id="CxYHxv4bn9UVLz-2JbSQ-121" value="" style="shape=partialRectangle;html=1;whiteSpace=wrap;connectable=0;fillColor=none;top=0;left=0;bottom=0;right=0;overflow=hidden;strokeColor=#CC0066;sketch=1;rounded=1;" parent="CxYHxv4bn9UVLz-2JbSQ-118" vertex="1">
                    <mxGeometry x="120" width="60" height="40" as="geometry"/>
                </mxCell>
                <mxCell id="CxYHxv4bn9UVLz-2JbSQ-122" value="" style="shape=partialRectangle;whiteSpace=wrap;html=1;bottom=1;right=1;left=1;top=0;routingCenterX=-0.5;direction=south;fillColor=none;recursiveResize=0;editable=0;strokeColor=#CC0066;sketch=1;rounded=1;" parent="CxYHxv4bn9UVLz-2JbSQ-1" vertex="1">
                    <mxGeometry x="236" y="1479" width="14" height="36" as="geometry"/>
                </mxCell>
                <mxCell id="CxYHxv4bn9UVLz-2JbSQ-123" value="" style="shape=partialRectangle;whiteSpace=wrap;html=1;bottom=1;right=1;left=1;top=0;routingCenterX=-0.5;direction=north;fillColor=none;recursiveResize=0;editable=0;strokeColor=#CC0066;sketch=1;rounded=1;" parent="CxYHxv4bn9UVLz-2JbSQ-1" vertex="1">
                    <mxGeometry x="236" y="1637" width="14" height="36" as="geometry"/>
                </mxCell>
                <mxCell id="CxYHxv4bn9UVLz-2JbSQ-139" value="" style="shape=curlyBracket;whiteSpace=wrap;html=1;strokeColor=#0000FF;fillColor=none;direction=west;sketch=1;rounded=1;" parent="CxYHxv4bn9UVLz-2JbSQ-1" vertex="1">
                    <mxGeometry x="699" y="1453" width="20" height="286" as="geometry"/>
                </mxCell>
                <mxCell id="CxYHxv4bn9UVLz-2JbSQ-140" value="page 3" style="text;strokeColor=none;fillColor=none;html=1;fontSize=24;fontStyle=1;verticalAlign=middle;align=center;sketch=1;rounded=1;" parent="CxYHxv4bn9UVLz-2JbSQ-1" vertex="1">
                    <mxGeometry x="751" y="1576" width="100" height="40" as="geometry"/>
                </mxCell>
                <mxCell id="CxYHxv4bn9UVLz-2JbSQ-172" value="" style="shape=table;html=1;whiteSpace=wrap;startSize=0;container=1;collapsible=0;childLayout=tableLayout;fillColor=none;strokeColor=#CC0066;sketch=1;rounded=1;" parent="CxYHxv4bn9UVLz-2JbSQ-1" vertex="1">
                    <mxGeometry x="269" y="1086" width="300" height="120" as="geometry"/>
                </mxCell>
                <mxCell id="CxYHxv4bn9UVLz-2JbSQ-173" value="" style="shape=partialRectangle;html=1;whiteSpace=wrap;collapsible=0;dropTarget=0;pointerEvents=0;fillColor=none;top=0;left=0;bottom=0;right=0;points=[[0,0.5],[1,0.5]];portConstraint=eastwest;strokeColor=#CC0066;sketch=1;rounded=1;" parent="CxYHxv4bn9UVLz-2JbSQ-172" vertex="1">
                    <mxGeometry width="300" height="40" as="geometry"/>
                </mxCell>
                <mxCell id="CxYHxv4bn9UVLz-2JbSQ-174" style="shape=partialRectangle;html=1;whiteSpace=wrap;connectable=0;fillColor=none;top=0;left=0;bottom=0;right=0;overflow=hidden;strokeColor=#CC0066;sketch=1;rounded=1;" parent="CxYHxv4bn9UVLz-2JbSQ-173" vertex="1">
                    <mxGeometry width="60" height="40" as="geometry"/>
                </mxCell>
                <mxCell id="CxYHxv4bn9UVLz-2JbSQ-175" style="shape=partialRectangle;html=1;whiteSpace=wrap;connectable=0;fillColor=none;top=0;left=0;bottom=0;right=0;overflow=hidden;strokeColor=#CC0066;sketch=1;rounded=1;" parent="CxYHxv4bn9UVLz-2JbSQ-173" vertex="1">
                    <mxGeometry x="60" width="60" height="40" as="geometry"/>
                </mxCell>
                <mxCell id="CxYHxv4bn9UVLz-2JbSQ-176" value="page 2" style="shape=partialRectangle;html=1;whiteSpace=wrap;connectable=0;fillColor=none;top=0;left=0;bottom=0;right=0;overflow=hidden;strokeColor=#CC0066;sketch=1;rounded=1;" parent="CxYHxv4bn9UVLz-2JbSQ-173" vertex="1">
                    <mxGeometry x="120" width="60" height="40" as="geometry"/>
                </mxCell>
                <mxCell id="CxYHxv4bn9UVLz-2JbSQ-177" value="sheet 5" style="shape=partialRectangle;html=1;whiteSpace=wrap;connectable=0;fillColor=none;top=0;left=0;bottom=0;right=0;overflow=hidden;strokeColor=#CC0066;sketch=1;rounded=1;" parent="CxYHxv4bn9UVLz-2JbSQ-173" vertex="1">
                    <mxGeometry x="180" width="60" height="40" as="geometry"/>
                </mxCell>
                <mxCell id="CxYHxv4bn9UVLz-2JbSQ-178" value="" style="shape=partialRectangle;html=1;whiteSpace=wrap;connectable=0;fillColor=none;top=0;left=0;bottom=0;right=0;overflow=hidden;strokeColor=#CC0066;sketch=1;rounded=1;" parent="CxYHxv4bn9UVLz-2JbSQ-173" vertex="1">
                    <mxGeometry x="240" width="60" height="40" as="geometry"/>
                </mxCell>
                <mxCell id="CxYHxv4bn9UVLz-2JbSQ-199" style="shape=partialRectangle;html=1;whiteSpace=wrap;collapsible=0;dropTarget=0;pointerEvents=0;fillColor=none;top=0;left=0;bottom=0;right=0;points=[[0,0.5],[1,0.5]];portConstraint=eastwest;strokeColor=#CC0066;sketch=1;rounded=1;" parent="CxYHxv4bn9UVLz-2JbSQ-172" vertex="1">
                    <mxGeometry y="40" width="300" height="40" as="geometry"/>
                </mxCell>
                <mxCell id="CxYHxv4bn9UVLz-2JbSQ-200" style="shape=partialRectangle;html=1;whiteSpace=wrap;connectable=0;fillColor=none;top=0;left=0;bottom=0;right=0;overflow=hidden;strokeColor=#CC0066;sketch=1;rounded=1;" parent="CxYHxv4bn9UVLz-2JbSQ-199" vertex="1">
                    <mxGeometry width="60" height="40" as="geometry"/>
                </mxCell>
                <mxCell id="CxYHxv4bn9UVLz-2JbSQ-201" style="shape=partialRectangle;html=1;whiteSpace=wrap;connectable=0;fillColor=none;top=0;left=0;bottom=0;right=0;overflow=hidden;strokeColor=#CC0066;sketch=1;rounded=1;" parent="CxYHxv4bn9UVLz-2JbSQ-199" vertex="1">
                    <mxGeometry x="60" width="60" height="40" as="geometry"/>
                </mxCell>
                <mxCell id="CxYHxv4bn9UVLz-2JbSQ-202" style="shape=partialRectangle;html=1;whiteSpace=wrap;connectable=0;fillColor=none;top=0;left=0;bottom=0;right=0;overflow=hidden;strokeColor=#CC0066;sketch=1;rounded=1;" parent="CxYHxv4bn9UVLz-2JbSQ-199" vertex="1">
                    <mxGeometry x="120" width="60" height="40" as="geometry"/>
                </mxCell>
                <mxCell id="CxYHxv4bn9UVLz-2JbSQ-203" style="shape=partialRectangle;html=1;whiteSpace=wrap;connectable=0;fillColor=none;top=0;left=0;bottom=0;right=0;overflow=hidden;strokeColor=#CC0066;sketch=1;rounded=1;" parent="CxYHxv4bn9UVLz-2JbSQ-199" vertex="1">
                    <mxGeometry x="180" width="60" height="40" as="geometry"/>
                </mxCell>
                <mxCell id="CxYHxv4bn9UVLz-2JbSQ-204" style="shape=partialRectangle;html=1;whiteSpace=wrap;connectable=0;fillColor=none;top=0;left=0;bottom=0;right=0;overflow=hidden;strokeColor=#CC0066;sketch=1;rounded=1;" parent="CxYHxv4bn9UVLz-2JbSQ-199" vertex="1">
                    <mxGeometry x="240" width="60" height="40" as="geometry"/>
                </mxCell>
                <mxCell id="CxYHxv4bn9UVLz-2JbSQ-193" style="shape=partialRectangle;html=1;whiteSpace=wrap;collapsible=0;dropTarget=0;pointerEvents=0;fillColor=none;top=0;left=0;bottom=0;right=0;points=[[0,0.5],[1,0.5]];portConstraint=eastwest;strokeColor=#CC0066;sketch=1;rounded=1;" parent="CxYHxv4bn9UVLz-2JbSQ-172" vertex="1">
                    <mxGeometry y="80" width="300" height="40" as="geometry"/>
                </mxCell>
                <mxCell id="CxYHxv4bn9UVLz-2JbSQ-194" style="shape=partialRectangle;html=1;whiteSpace=wrap;connectable=0;fillColor=none;top=0;left=0;bottom=0;right=0;overflow=hidden;strokeColor=#CC0066;sketch=1;rounded=1;" parent="CxYHxv4bn9UVLz-2JbSQ-193" vertex="1">
                    <mxGeometry width="60" height="40" as="geometry"/>
                </mxCell>
                <mxCell id="CxYHxv4bn9UVLz-2JbSQ-195" style="shape=partialRectangle;html=1;whiteSpace=wrap;connectable=0;fillColor=none;top=0;left=0;bottom=0;right=0;overflow=hidden;strokeColor=#CC0066;sketch=1;rounded=1;" parent="CxYHxv4bn9UVLz-2JbSQ-193" vertex="1">
                    <mxGeometry x="60" width="60" height="40" as="geometry"/>
                </mxCell>
                <mxCell id="CxYHxv4bn9UVLz-2JbSQ-196" style="shape=partialRectangle;html=1;whiteSpace=wrap;connectable=0;fillColor=none;top=0;left=0;bottom=0;right=0;overflow=hidden;strokeColor=#CC0066;sketch=1;rounded=1;" parent="CxYHxv4bn9UVLz-2JbSQ-193" vertex="1">
                    <mxGeometry x="120" width="60" height="40" as="geometry"/>
                </mxCell>
                <mxCell id="CxYHxv4bn9UVLz-2JbSQ-197" style="shape=partialRectangle;html=1;whiteSpace=wrap;connectable=0;fillColor=none;top=0;left=0;bottom=0;right=0;overflow=hidden;strokeColor=#CC0066;sketch=1;rounded=1;" parent="CxYHxv4bn9UVLz-2JbSQ-193" vertex="1">
                    <mxGeometry x="180" width="60" height="40" as="geometry"/>
                </mxCell>
                <mxCell id="CxYHxv4bn9UVLz-2JbSQ-198" style="shape=partialRectangle;html=1;whiteSpace=wrap;connectable=0;fillColor=none;top=0;left=0;bottom=0;right=0;overflow=hidden;strokeColor=#CC0066;sketch=1;rounded=1;" parent="CxYHxv4bn9UVLz-2JbSQ-193" vertex="1">
                    <mxGeometry x="240" width="60" height="40" as="geometry"/>
                </mxCell>
                <mxCell id="CxYHxv4bn9UVLz-2JbSQ-185" value="" style="shape=partialRectangle;whiteSpace=wrap;html=1;bottom=1;right=1;left=1;top=0;routingCenterX=-0.5;direction=south;fillColor=none;recursiveResize=0;editable=0;strokeColor=#CC0066;sketch=1;rounded=1;" parent="CxYHxv4bn9UVLz-2JbSQ-1" vertex="1">
                    <mxGeometry x="223" y="1048" width="14" height="36" as="geometry"/>
                </mxCell>
                <mxCell id="CxYHxv4bn9UVLz-2JbSQ-186" value="" style="shape=partialRectangle;whiteSpace=wrap;html=1;bottom=1;right=1;left=1;top=0;routingCenterX=-0.5;direction=north;fillColor=none;recursiveResize=0;editable=0;strokeColor=#CC0066;sketch=1;rounded=1;" parent="CxYHxv4bn9UVLz-2JbSQ-1" vertex="1">
                    <mxGeometry x="223" y="1215" width="14" height="36" as="geometry"/>
                </mxCell>
            </root>
        </mxGraphModel>
    </diagram>
    <diagram id="nhDZuCznbklx2XZz5fQ5" name="tableData Example">
        &#xa;
        <mxGraphModel dx="1212" dy="826" grid="0" gridSize="10" guides="1" tooltips="1" connect="1" arrows="1" fold="1" page="1" pageScale="1" pageWidth="1200" pageHeight="1920" math="0" shadow="0">
            &#xa;
            <root>
                &#xa;
                <mxCell id="XhhwrtuDSf7FmkPlDNKx-0"/>
                &#xa;
                <mxCell id="XhhwrtuDSf7FmkPlDNKx-1" parent="XhhwrtuDSf7FmkPlDNKx-0"/>
                &#xa;
                <mxCell id="XhhwrtuDSf7FmkPlDNKx-2" value="" style="shape=image;verticalLabelPosition=bottom;labelBackgroundColor=#ffffff;verticalAlign=top;aspect=fixed;imageAspect=0;image=data:image/png,iVBORw0KGgoAAAANSUhEUgAAApYAAALBCAIAAABtG3YSAAAgAElEQVR4Aey9eXAbV57nqfpz/9s/5g/HRLWQQIK47/sg7iMTSVIiJd4kSICwVWrJsmxdFi3TFl0+qZKtlWWdZZVMy5RHEkWIQhW7GLvT64noiqjtjpiInu2e7uno3eptd0XH9oz/34ruiI1UQokkCCRxEgTwjUAwHvJdv/d5D/zmu/dJCBIfEAABEAABEACBtiOwr+0shsEgAAIgAAIgAAISgoSEYxACBEAABEAABNqSACS8LasNr58gAAIgAAIgAAmHhIMACIAACIBAWxKAhLdlteHdEwRAAARAAAQg4ZBwEAABEAABEGhLApDwtqw2vHuCAAiAAAiAACQcEg4CIAACIAACbUkAEt6W1YZ3TxAAARAAARCAhEPCQQAEQAAEQKAtCUDC27La8O4JAiAAAiAAApBwSDgIgAAIgAAItCUBSHhbVhvePUEABEAABEAAEg4JBwEQAAEQAIG2JAAJb8tqw7snCIAACIAACEDCIeEgAAIgAAIg0JYEIOFtWW149wQBEAABEAABSDgkHARAAARAAATakgAkvC2rDe+eIAACIAACIAAJh4SDAAiAAAiAQFsSgIS3ZbXh3RMEQAAEQAAEIOGQcBAAARAAARBoSwKQ8LasNrx7ggAIgAAIgEB7SPgBu/ZEzFiytkbc+h8uxrjP//bHvpJhOuzhxxf3/ev3+c+3P2+PGuywKkBxQAAEQGAvENhtASAImVWtqLbktydc//txf8lYPaTcoVE6NMpvZj3VSrhbr+S0/58XIn99JvTNjCdqUZfMpdzDHlJuVFZdnHKpVfj844v7/v63+yjqJYp6yen+cYWxEAwEQAAEQKDDCOy2hC/02/7+fLhaiCISzid1d9JVm4SfS1gosybpM6zNef95ITLs0vNp7ujIZrwPU54dgzU2wMcX9/31f9rtimtsEZAaCIAACIBA/QR2Wwn2oIRP9xY0+5cv9/71mZBcKq+QLCS8QlAIBgIgAAIg0HACuyfhC/02ftKac/z2ZJAvj17R882s56/OhH+/EP0/z4YuH3YIdZTrhf9x2PRfTgV//3b010d7fQYlH5dziPTCU37Dn70W+P3b0b94I3A8YuYjcgPpQgmf9LIz6xPevKhfOmT/izcC/3Qh8nfnIispr11TyDSb8RYV54sxB5+yeHG4YEmf4e/Ph6+PuvhYFTrQC68QFIKBAAiAQGcT2D0JV5Byq1rx0aD9/zoftqoVVrVCr+gRwJWdocyHXXrKqjkSMv3ducjHg3be9/aE6x/fivz6aO8Bu27Sq/+vZ4N/9lqA9+Uc5SR81m/4l3eiHw7ZGJtmvs/yz29H0wEDF2W7hGsV8h8uxt4dsHEB0gHDlJc1adyr/9Pjvv/1aGG5nF7RY1UrfvWKb23OyxVHKRf23cWKwyX+8wnnDxdjNUwrQMI5gPgLAiAAAl1OYPcknANd4UD69VHXd4L1a7cnXP/lVFBB5jXyaMj0w8VYn10jrLxyEv4XbwTuJd18yOtjDj7l7RIuIcj/9+3Ip4cL/Wk+4pzf8D/ejW7VabLCgfSi4nBp+gzK5aSbf5/gM9rRAQnfERECgAAIgEA3ENhDEv5K0Pjro73/9Wzwd29Ffr/ADnrzFVC0nM2uYVeSF20zKynhDq3qh4uxl4OFDWnpgOG/L0SlUnY7eDkJ/9lwfgCAsWn+w6znL08Ffzcf+f5C5IeLsaLl9CISLlIcvly1OSDhtXFDLBAAARDoMAJ7RcLfZCz/8k70tZhJTbKj61eGHSISriDZ4e53+vLD3VyVlJRwyqr54WLsn96Ofn+B1eDvL0R+/3b0h4sxbgx/u4TrFT0/XIwtMFYJQSZsmn9eiHwx5rA83wU33ctOk1co4eLFqbMNQcLrBIjoIAACINAZBPaKhP/Za4HVdGF3lriEc33r1+OFhWkSgiwp4S6d4oeLsZNxc69BJfxICFnJXji3nI3bV3Z11Pm7+QjxPKSEIKuScPHi1Nl0IOF1AkR0EAABEOgMArst4ecSlu8vRLaz+z9eC34zW5Dwr6ZdRb1w4fq1EzHjDxdjIdOWY1huT7j+9HhhuRmfxV+eCl4rs+q7qBculZK/Ptr7V6dDMoIdZr8+5vhv50J8Oq9F2Qn4ol74o5Qnm/HyYXiHeHG4YL0G1b2kO+XPr63j4+7ogITviAgBQAAEQKAbCOy2hFNmzf94l10fTlu0mYCx36blKH8+6vx/3gqPuLQOjfKDQds/zEf+8a2ISZU/+Oz2hOt/vBu9PuYImdRzfsPfnYs8fbm3qHpO0+Z/ejuaCRj77JopwVbvIyETvyJ93Kv/xbT7j8MmLi4n4adpc9ComvDq/+Qnvu8vRA65dZzvrN/ww8XY2YTFqlYeCZn+6kz4h4uxyRf7zbgw832Wf7oQORIyJmyaM5SZP6lNvDhcXKxI5zjgLwiAAAiAQG0EdlvCJQT5WtT0l6eC3II1fpe2muz5Oun+x7civ5uPfDXtsmuUT1/u5X1vT7gepjzXxxy/m4/87q3INzMerUK4g4vtNMsI8vaE6x/mI/8wH3mc3tIzzgSMf3bC//u3o3//ZujulNupzW/v5iT8h4ux/74Q/ZuzwV9Mu4u2m/90wP7f3gz909vRPznii5jVPxu23xh3CkFLpeT/MuL8+zdD31+I/OkxH2PLL5IXLw6XQtJn+L/nw9cFu8mFKYu40QsXgQMvEAABEOgeAi2Q8O6B26SSchIuI2UyUkZI2Ul9fEAABEAABLqQACS8/fQPN5V14Q8VRQYBEACB7QQg4e0n4Rbrfu6aMtxUtr1B4wkIgAAIdA8BSHj7SXj3tE6UFARAAARAQIQAJBwSDgIgAAIgAAJtSQAS3pbVJvJSBi8QAAEQAIEuIbBLEm40sUeW4gMCIAACIAACINAoApBwvFiAAAiAAAiAQFsSgIS3ZbU16g0O6YAACIAACLQvga6Q8PcMF/7F8Lfc5xfmL9q3tmA5CIAACIAACPAEukXC/7PxP8ZVsbgq5urZckIqDwIOEAABEAABEGgvAt0i4b81brZXxcBaEAABEAABEBAnAAnHXDgIgAAIgAAItCUBSHhbVpv4exl8QQAEQAAEuoEAJBwSDgIgAAIgAAJtSQAS3pbV1g1vlygjCIAACICAOAFIOCQcBEAABEAABNqSACS8LatN/L0MviAAAiAAAt1AABIOCQcBEAABEACBtiQACW/LauuGt0uUEQRAAARAQJwAJBwSDgIgAAIgAAJtSQAS3pbVJv5eBl8QAAEQAIFuINBFEk4SCpJQEBJ5N9QryggCIAACINDxBLpFwnFTWcc3ZRQQBEAABLqNQFdIuIW0cteU4aaybmvfKC8IgAAIdDCBrpDwDq4/FA0EQAAEQKBrCUDCsZwNBEAABEAABNqSACS8Lauta185UXAQAAEQAAGeQIdLuNFk5YsKBwiAAAiAAAh0EgFIOHrhIAACIAACINCWBCDhbVltnfQWibKAAAiAAAjURgAS3kQJX/zNH37623/jPjp7oLYaQiwQAAEQAAEQKEkAEt5cCe878aE52G8O9ktJVckKwEMQAAEQAAEQqI0AJLy5Eh4YO15bxSAWCIAACIAACIgTgIRDwptIQLzxwRcEQAAEQKAeApDwJgrY4m/+gF54Pa0TcUEABEAABEQIQMIh4U0kINLy4AUCIAACIFAnAUh4EwUMvfA6WyeigwAIgAAIiBCAhEPCm0hApOXBCwRAAARAoE4CkPAmChh64XW2TkQHARAAARAQIQAJh4Q3kYBIy4MXCIAACIBAnQQg4U0UMPTC62ydiA4CIAACICBCABIOCW8iAZGWBy8QAAEQAIE6CUDCmyhg6IXX2ToRHQRAAARAQIQAJLzJEj7xKkEqCFIhUgfwAgEQAAEQAIEaCEDCmyvhuKmshkaJKCAAAiAAApUQgIQ3UcLNgT7umjLcVFZJW0QYEAABEACBqghAwpso4VXVBAKDAAiAAAiAQFUEIOGQcBAAARAAARBoSwKQ8Lastqpe0xAYBEAABECgIwlAwhsv4UaTtSPbCgoFAiAAAiCwpwhAwiHhjSewp5o4jAEBEACBTiUACW+8gKEX3qm/FpQLBEAABPYUAUh4p0n4d9l9//p9/vPGqz/a0trkciaX6X2nT8/YmVzGNO7Z4kuIoXCejDK5jMKmC10bji5PVh5xx5Cha8Oxryclz23zLvTtGJ4PwJXCPOHN22bV8l51OppV2Dr4i5eoJQb3KKV8S/vX7/cZTRJxI+ELAiDQcAKQcDHdqg13a3vh32X3rS3vo6iXKOolvaH4vyqdTXvOUpqQhcllDAccfAFlaoXnNBW/P0Vn05HbY8ZhF+/FOexHQkwuQ2pVgUtD4ZujRb71fA1cGorcHpMQZCKb9pymipJS+U3By4fo1dn4/SnHiYjQV8uVYtDpOBJmchmZWin0rcctUtj9hMz2SjB2b4LKpiJfjpmne4UZKV2GwCeD1KNZ6tGM/4MDPRaN0FdCkOX4FwWr9quIwVxSpEHt+EmYIOVFKduOsuiEH/PklhKJGizjmtkbr/4IEl4EFl9BYHcIQMI7UMLvfl62WuMrSceJsNJlYHIZXczCN7LAlaHQzRHDgEMTNLvfiDG5jL7PxvtKCNI67WNyGYmM9L03EPzssNCrTnfvYn/o6rCEIKkHSeexqDA1pcdAPZ5xnoqpvEZdzGoYdG7xdeqZXEZLW21JP2ubtGFVKVJYx/EI9SBpGHD0WLWmcQ+VTVnGvZxVcqMm/jDp/+igJmTRBM2Bnw3F7k1I5T1Cm8vxF4apwS1iMJea89Vo5O749pRtR8ORu+MKq5b/SORbZL4Sg4cG/x0kfDtbPAGBXSBQ9n99Y/NuVce0Jfm2JFO+vr7L7hOR8OjdCdvLIblJw+Qyar+Jj6Ww66SqwkHuoS+GA58M8r4SgjQPuxNPUhKCdF9IBD7e4iUMVoPbM09zecXuTVgzQWEK/qXB3sUB4ROhmzSo2VIETKZRD706K/Sq0y1S2Pj9KfvRMJ9+77t9gStD3Ffb0TD1aJboyWs2qVcx63Om0S2zFeX48wnW5hAxWEKQBCmPrUxb0/7tibMS/nwIZLsX96QSgyHh5ejhOQg0mwAkvGFdN76q9rKE6/tsCoeOIOWmUY9MXdBs3njO0bs4EP5iRPhQbtJwnWC136SJmIVedbpVLxLU99kVDh2fmkynYnIZkbwIWb4UvG183DodfILbCxtbmbYfCfHp+97t5991vAtM5MYWaJEvx93naT6whCAr5C+MUolbxGAJQRpH3PTqbMnq3lHCKzEYEl5JHSEMCDSDACS8uyS8wjYUuTHivdhfYeAmBTMMOJhcRuUzBn42RK/ORr4cL+rRNilf8WSdp2LUoxnDYXatgDZmoR/OqEP5wQznqVhseYqPvp+QRW6N+d4rO4rAh2y2I3Rt2DPPvknIdKqerYv+dpTwSmyDhFdCCWFAoBkEIOGQ8GICqqCJnQtn7M1ocJWnaZnyJZ6vrTNP92qCZsfxCDfzXXkKTQkpJb1vJZhcJrYyTWVTWrpwjI8qaEo8m7O9EpTK5aRe5VlgEk/T7guJppghun1AmKPKz9amymeUEKTjSNh/acskiO1oOP4gyS4YfDgTuzdhmwsI41bohoRXCArBQKDhBCDhxQJWP+K9PJC+c+nk8vDNUd+HB3YOWbGK1JaUbS6QeDanDhcm7IOfHe79oMWGmUY9sa8nDQMO45gndHOEXp3VJQrr/ixTPurxbOLZHL06a3sluH0VfW0o6onlXegLf55ffug8GS2ScG3U4jgS1tJWldfILeyvaqshZxgkvJ4KQlwQqIcAJBwSXiCwn5B5F/tj9yYauEGr5tZpnuyl19P7CRmfgutNSnztFR+ySQ6FVZt4muY34xEyufdiP/UgyS9h49aOKaxaiVyu9LDL/oXd9CZZJZIsqVXR2TQ/AeF6kyqS8KK4gZ8NBT6tersBJLwII76CwK4RgIQXBKxR0Nu3F+48FYuvTCtshTVljWJSQzq6GLt5XW4sbK32LvSFrrHbz1r1MY172A3omsIGdG6HPT8dzhtGyOSBK0PRO2OEbMseLT7A7jj0B9j1BFQ2RWfT7Gc9zazP0dm00mUoaYDnbaaGlyRIeEmYeAgCu0AAEt54PWhTCbcfC8dXkuX+ue/YFmk6sPpo8fy5mR1DVhiA6Omh1wq7rvcTsujdCeepWIXRJQRpMOiX7124ce20XF527X3lqUkIUtfPnmrHzStzEc3DbvbQuq1rxJQuQ+jqMPUgqfIVZgEqyajhBksVCqVTz396PzgQujKsdOoLZ7zICu1/PyEL3RzxfXiwElOFYcpJeMOLI8wUbhAAAQlBQsIL/8Ia1SDaUcLtmSCVTZlGPWq/if9IBP/fd4Qzf352c2Pp2dMPdgxZeQDX69HYyrRhwKH0GNznaerR7PbzzkRSOzQU29xY2txYCgSKD5sTiSXiRZDy6J2x0M0RXcKmcOqMw674SlK45lzH2AKXhhJP072LA0W6LpIs79Vwg/mUOYfnbUY4kC5VKGL3JhwnItqYRROyuC8kEk/TmlDhwJ+i6OW+lpPwZhennD14DgLdQwASDglnCYSvjwhP2WRymUQ2XdV5Z1TMv7mxdOPa6Qb+eAiZ3HkyGl+ZptdSgStDKi+7rLryj0qlfvrk/V+uf6hUqiqPJR6S1Ku8FxLccvTYvQnnsahUcJyZYcBhmwtU9Z4hzK4ZBgvTd19ICCVcQpCakCVwid2zR6/OBj87rBUc2CeMKO4uJ+HNLo64VfAFgW4gAAmvQhIqbBB7oRcuI2UyUiYRrAWr0Piagw0ORjc3liYnmJpTaHhEjUa7ubG0+G6m4Sk3KcG2M5jjUE7C27Q4TapcJAsCzSAACe9ACefvjyq+qayaLmy1re3M6ens4/d7egpLvapNoeHhBwZCmxtL4dCWI04bnksDE2wvg3e8qay9itPAekRSILBrBCDhnSbh3t4fc/dHlbyprHkN6/r10+fOJpuXfg0pv/76xM/vvFlDxFZFaTeD8zeVce1NKits/+MAtltxGv+voFUNCfl2DwFIeON/t60dSO+etouSggAIgECXE4CEQ8IbT6DLf1QoPgiAAAjsDgFIeOMFDL3w3Wm7yAUEQAAEupwAJBwS3ngCXf6jQvFBAARAYHcIQMIbL2Dohe9O20UuIAACINDlBCDhkPDGE+jyHxWKDwIgAAK7QwAS3ngBa20v/LvsvrL7wuVyJpfpfadPz7BnfVd1raTzZJQ9DNymC10bji5PNrB1hq4Nx76elDy3zbvQ18CURZJqVnHqICxirYQguSozT3jzlm89lV08rrhvk/iLG/z5pUIrvfv5Lv0XEucAXxBoRwK79ONplaq1JN+WZMo3vu+y+9aW93FbdfUGCf+cc9DZtOcsxd2vxV+aKSFImVrhPBWLLU9R2VTky3FLyl8U0X4kxOQypFYVuDQUvjla5FvP18ClIe52rEQ27TlNCZMKXj5UdOxrj33LLWqmQ+7IrTF6jbXZcLj4IHQR3+YVpxxhCUHa5gKRL8fobDr29aTjeER4BP2O/LUh9t42w6CTu9W7gbfBluOvdOqL4DO5jPNklK8gpcsQ+GSQejRLPZrxf3Cg6FhZcYOt1v1cE/3zzX2QcB4pHCBQLQFIeAf2wkX+J8ZXko4TYaWLvcpaJzgQ2/FaJPDpYV2/Xekx2I+E6PW0LR0QNibrtI/JZSQy0vfeQPCzqq+UFiZV5O5d7A9dZa8QpR4knccKCiEhyODlQ94FRmHV8h/h9eGmcU/iSco83av0GAyDTlVwy7Vg4r7NK05Zwscj1IOkebJX7TeZp3sTT1JCOdyRPyeoWtpqS/rZipA2rN2W40+QcoVbz3/UIROdTRuH8+9JcqMm/jDp/+igJmTRBM2Bnw3F7k1I5T185VZo8HdZSHjDqpKHD0f3EICEN/730/JeuIiER+9O2F4OyU0aJpdR+wWaJyOFquBZYIq62uZhd+JJSkKQ7guJwMeDDfyFeObpwCdsgrF7E9ZMUJhy8PIhz9kt/XLel+jpYRVxupd/InSI+0oIsnnFKUdYqlIoHIUhBNfrMXp1tvBGshN/0qBmqyxgMo166NVZYWHrdIvwF6ZsSfnjK9P89ee2o2Hq0SzRk9dsUq9i1udMo4WzbCs0GBIuhAw3CFRLABLeXRKu77MpHDqClJtGPTJ12Vu03edprmfMtye5SWMYdEoIUu03aSJm/nn9DtWLBPV9dqHIcb3wchJuGHTSaylht09oibivhC1/s4pTIWHzdC+Ty/ASKDSefU/axp+Q5auMt7woSs1fRfjzaXKXtbOD/y+O2fcuMJEbI/xXCUFGvhx3n6f5JxUaDAnnicEBAjUQgIR3l4Tv3ERkpP6Ag/o2Wdu9kzun/0IDKgkp0gt3noqFrg3r++zhm6P06mzo6rBwUEHct5Ksmx3GeSpGfTNdIpe9xJ83T9dvT2TTpEHNP+FWTvBf9xOyyK0x4dXpvJe4AxIuzge+ICBOABIOCS8QsIx7E9k0lU3Ztw5oi7eh5vkGLx8K3RwJ3xqlHs+Gr4/oGTufl/dif+zrydDNEcNBpyZi9n9wgH44Q+rz94KL+/KJtMohVSliK9PCuXDOkr3Gn+fDLkq42M9/lRCkKmhKPJuzvRKUyuWkXuVZYBJP0+4LCWGYStyQ8EooIQwIlCMACS8IWDlG1T7fy3Ph4mWRqZVKp9447Irfn3K/ERMPvAu+xjGPLR3QPl8w1bs4QGVTCmd+Otn30YH4yrRUm7/bVKpQJJ6krC8W0ov77oLl4ll430rElqe2T2TsNf5cKRRudmm6JmQpKpRlykc9nk08m6NXZ22vBOP3pxwnCiPtRYHLfYWElyOD5yBQCQFIOCS8BAHTuIdZnyMN+U5tJS2p2WGk8h56ddZ+LMxl5Hu3P/DploXx0Ttj7nPxSnybbap4+ubpXnotVbR+vijKnuLvvZAomvbmrWVXrVu1Erlc6WH3OGhpK+9VoQMSXiEoBAOBkgQg4SUErCSpyh+2by+cL6MmYmZyGZVwyXo1c9h8Oo11RL+a4Fe3OY9Fo7+YEKYfXZ7kh6bFfYWxdtltOOiks2n9AYd4vnuHP6lV0Wsp8VOACJk8cGUoemeMX68uXjqhLyRcSANuEKiWACQcEs4SYPtSsgIKayZIZ9MyTdkl69vbGU0HVh8tnj83s92r9icCk0i9KpFNW9P5M2d0MWvi2VzPi0PK5FYNsz5nGMhLo7hvJfY0ozha2kqvzvJbq4Vm7FH+BOn4SZh6kJTK5UJrhW6lyxC6Okw9SKp8gj2KFb/wlZPwZvAXmg03CHQGAUh4QbcaVaNt1wsnZPLYvYngZ4d1jE3lNVpT/sSTVLXzmvPnZzc3lp49/aBRGFV+U2x5ypb0q4ImXcIWusqewyrT5Ce/9xOy0LXh8OeH1SGTNmQJXR0OfzHCv4WI+1ZiYcOLo4mY6TX2OBe138R/uEPW9iZ/CUESMnn8/hQ/tlHETcfYApeGEk/TvYsD7CtIxbItDFlOwhvOX5gp3CDQMQQg4ZDwfC/cu8DEVqbpbDpye8w67SucOlLZv2Yq5t/cWLpx7XQDfxumcW/kxgidTccfJnsX+4t0gjSofO8NsAd8Pp71vdvPL23jDBD33dHIhhfH/UZs+3ml2mh+jZjCqt2D/GVqheN4RG7SlMRlGHDY5gJF56qWDCnysJyEN5y/iA3wAoH2JQAJ70wJl5EyGSmTELJda5qDg9HNjaXJCWbXcmxqRm1XnLYzmKu+chLepsVpaptE4iCwnQAkvAMlvOxNZZX1p7e3kkqenDk9nX38fk9PfqC7kih7OUzbFae9DN7xprL2Ks5ebsmwrbMJQMI7TcK9vT/m7oCiqJe231TWvNZ8/frpc2eTzUt/l1Nuu+K0l8H8TWUU9ZLd8UfbK7e9irPdfjwBgd0hAAnvNAnfnXaDXEAABEAABFpOABIOCW88gZY3axgAAiAAAt1AABLeeAFr7aaybmi1KCMIgAAIgICEICHhkPDGE8BPCwRAAARAYBcIQMIbL2Dohe9Cw0UWIAACIAACkHBIeOMJ4HcFAiAAAiCwCwQg4Y0XsNb2wr/L7iu7L1wuZ3KZ3nf69IydyWXE765oYOMLXWPPRpU8z9270NeolLlSmCe8zpNRJpcpOrutUblsT2cPFidPwKYLXRuOLk9ut7nGJ01rMOIG77hrvMbiNPNcBJgEAi0hAAnvQAlfW97HbQ3fvi+czqY9ZylNyMLkMoZS92VZpnzqQPF9FQqHrnexP/4wSa+lQleHy90p6TgeIQ3q7e04cGkocntMQpCJbNpzmtoeoLYnWq4Ug07HkTCTy3DnjQuTMh1yR26N0WupyJfjhsMu3qt3cWD7Waf8TR7ivhKCbElx9AccoS+G6bUU9c2081RMKu/hiyMhSPuREJPLkFpV4NJQ+Oao0KtOt0iDsc0FIl+O0dl07OtJx/EIf0C9hCBlaoXzVCy2PEVlWfiWF/e488aIG8zvGv/zzX13P9+l/1G8bXCAQBsR2KWfR6s6pi3JtyWZ8m2u3ImVXID4StJxIqx0sbc762L5A7r5uFKVouRVWqGrw+7ztDZmUQVNve/0JZ6mt193rYtb6fV0yfO0exf7Q1eHJQRJPUg6j0X57Op0KJ167o5qW9LP5DIS6Za3MdO4J/EkZZ7uVXoMhkGn0GC5SaNw6/mP961E5O44b4y4r4Qgd784esaeeDbnOBFWeY16xh5dnux9Z8tghnXaxxKQkb73BoKfbblGnS9XbY5yDcZxPEI9SJone9V+k3m6N/GEvcGFz8LxWiTw6WFdv13pMdiPhOj1tC0d4H0lBFmhweKNWZgg3CDQnQQg4Vv+7zekEexlCY/enbC9HJKbNEwuo952Hbg17Y+vJAmy+GbJoj4fe2/3ts6078ODvg8PlgTomacDnwxKCDJ2b8KaCZYMU8ND0qBmSxEwmUVJUDUAACAASURBVEY99OqsMAWip4cVmOle4cOSbkImp76Z3t5N5AKX9N394gQvHwpePsTbbxh0MrmM8G3JPOxOPElJCNJ9IRH4mEXdqE+5BiNVKRQOHZ+L6/UYvTpbuBpHRgrfqDwLTNHYQIUGQ8J5wnCAQEkCkPCG/bPj+e5lCdf32RQOHUHKTaMemXrLdeD7CVnk7rjjRJgvSDlH5MviYD0WDb2eLjfArvKbNBGzhCD1fXbh//1y6Vf4nJDlSyE3aQyDTmEsw6CTXksVvXkIA/Bu06iHejwjVW1BIe67+8WJLU85T8V4q0i9il3KcMjNP+EJqF+g5r3qdIg0GGHK5uleJpcherYM7/MB3OdpbhiGf1KhwZBwnhgcIFCSACS8uyS8ZCPgHuoZOz8SrvQYSv47lioUjp+Eo8uTpEElTMp5Mhq5O852wuRypccg9GqJ23kqFro2rO+zh2+O0quzoavD24ccOMPC10fc5+LljBT3LRer4c8jN0a8C4Ur4KRaJZPLWJO+hmdUc4LOUzHqm+kS0WWk/oCD+jap3TZrUyLwtsEDSHgllBCmmwlAwiHheQKBjwd9Hx3gfgxUNqUOFS9q8ywwzPpc/EGyaBJdKpdTD5K2OXayUxOy0Nl0y39R3ov9sa8nQzdHDAedmojZ/8EB+uEMqd/y2sFaGzEnns0pnfqSBov7lozSpIe2l0P0Wood5JCSSpchdHWY7YWPepqUXbXJSlWK2Mq0cC6cS8Ey7k1k01Q2Za919gQSXm1dIHy3EYCEQ8JZAj1WLbM+p0vYJAQplfewc8zbJJw0qFVeoz0TpNdSwtXs3MIxmYYdi9Yxtr0g4b6PDsRXpqXa/M2nUoUi8SRl3bYu2vf+QODSULnfvLhvuVhNeS4j3efpxNN04tlc7OtJyyy7fK/ctEVTDNjWPxbm4n0rEVueKpqXeb4uXal06o3Drvj9KfcbhYkAYVxxNyRcnA98QQASDglnCThPxaJ3J7jlSDIdO9W6XcL5X4t3oS96h90kxn3C10e8FxKc2zjk2hMS/m5/4NMtC7Ojd8aKBszlVnb+3jDg4AsidIj7CkPumptdQWbVSqSkNeWns+mSMx27ZgyfkXm6l15LCRf88168wzTuYdbniiZfeF8RByRcBA68QABnpDdevyUEuZeXs5Vr9KGbI8z6HJ1Ncx8ml6GyKe/F/pLhbUfD/ApwmVrB5DKJp/mIiWyayWXobLqS1eAlE2/IQ+exaPQXE8KkosuTRSO9rtej0a+2hBGGF/cVhtxlt9ykia8kPfP0LudbMjvDQSedTetLHTAgDK+JmJlcRrVtB4QwTEk3JLwkFjwEAZ4AeuGNV/F2lHCFVat06rmPLsYe/GI65ObPaemxF7YPsWebfDwYusbu8+Y+fESlU28/EqKyKaVTz42r82HEHceOjjx5/NORkYad+qKLWRPP5nqsWi5fuVXDrM8JO9zsrrNHM+XmaMV9xcsiIcjLS69++807Lic7K9HYj77PHr8/FbkxUhVeCUE2nLCEILW0teQpAhKCZEcLZIWyWzNBOpuu1mYJQZaT8GYUp7E1hdRAYHcIQMIL/2gaRbwdJVxY9h7L813jL+bCFQ5d4mnaM09rQ+zRLu4zFDtrzpTWJ+OYp4aB9Htfnt/cWLq89KrQjHrc+wlZ6Npw+PPD6pBJG7KErg6HvxgRioot6U88SW0/0I3LVNxX3DCdTre5sbS5sfTKK4Wd3OJRKvG1pvyR22P06qzzZLSGIfSGE9ZEzPQae5yL2m/iPxxPQiaP3ZsIfnZYx9hUXqM1xaJ2nIhUUsyiMOUkvOHFKcoXX0GgXQhAwiHhxQTyB7+8kHC2vxWzBC4NUY9m6dXZwJWhohXpwrbOnrJS/Yr0E8fHNjeWTp4sHJEmTLM2N2lQ+d4boB7NUo9nfe/280vbuNR0CZvIUL+47472XL36+ubGEk1vOY9sx1jiAWxzge1b+cWjCH0bTtj9Rmz7IbXaaP68P4VV611gYivTdDYduT1mnfYVTn2pZmSinIQ3vDhCVnCDQBsRgIQXC1j9lbcXeuEyUiYjZRJCVn9xdiGF8+dmfv2rT+y24gNfdyHrZmRx9+fnV+4vEFsPfG1GRpWn2aaEy0l4mxan8vpCSBCokAAkvAMlvOxNZdV0gCpsQA0JdufW2c8un2hIUi1PRKVW/ckvPz56pLBWoOUmSQiyvQjveFNZexVnLzQA2NCpBCDhnSbh3t4fc9eUUdRL228q24PtuEeh3Mh9dPBgLXOle7A4CSbwy/UPdbr8Srq9YGHbEeZvKqOol+yOPypi2HbFKbIfX0GggQQg4Z0m4Q1sHEgKBEAABEBgLxOAhEPCG09gL7d42AYCIAACHUMAEt54AWvtcraOaZooCAiAAAiAgDgBSHjjJVycOHxBAARAAARAoCEEIOGQcBAAARAAARBoSwKQ8Lastoa8viEREAABEACBtiYACW+WhHsPpn/623/jPqce/01btxIYDwIgAAIgsAcJQMKbJeFylcEc7DcH+ycWv4KE78GmD5NAAARAoN0JQMKbJeF8yzjwxqeQcJ4GHCAAAiAAAo0iAAmHhDedQKMaK9IBARAAARAQEoCEN13A0AsXNji4QQAEQAAEGkUAEg4JbzqBRjVWpAMCIAACICAkAAlvuoChFy5scHCDAAiAAAg0igAkHBLedAKNaqxIBwRAAARAQEgAEt50AUMvXNjg4AYBEAABEGgUAUg4JLzpBBrVWJEOCIAACICAkAAkvOkCVq4XTtOB1UeL58/NCOsDbhAAARAAARCokAAkvGUSPn9+dnNj6dnTDyqsKgQDARAAARAAASEBSHjLJJyK+Tc3lm5cOy2sD7hBAARAAARAoEICkPCWSfjgYHRzY2lygqmwqhAMBEAABEAABIQEIOHNkvAdbyo7c3o6+/j9nh6lsD7gBgEQAAEQAIEKCUDCmyXh/E1l5mC/0RPbXh/Xr58+dza5/TmegAAIgAAIgEAlBCDhzZLwSugjDAiAAAiAAAjUTAASDgkHARAAARAAgbYkAAlvy2qr+ZUNEUEABEAABDqGACQcEg4CIAACIAACbUkAEt6W1dYxr5AoCAiAAAiAQM0EIOGQcBAAARAAARBoSwKQ8CZW2+Jv/vDT3/4b99HZAzW/ZyEiCIAACIAACGwnAAlvroT3nfjQHOw3B/ulpGo7fTwBARAAARAAgZoJQMKbK+GBseM11w0iggAIgAAIgIAIAUg4JLyJBERaHrxAAARAAATqJAAJb6KALf7mD+iF19lAER0EQAAEQKAcAUg4JLyJBMo1OzwHARAAARConwAkvIkChl54/Q0UKYAACIAACJQjAAmHhDeRQLlmh+cgAAIgAAL1E4CEN1HA0Auvv4EiBRAAARAAgXIEIOGQ8CYSKNfs8BwEQAAEQKB+ApDwJgoYeuH1N1CkAAIgAAIgUI4AJBwS3kQC5ZodnoMACIAACNRPABLeRAFDL7z+BooUQAAEQAAEyhGAhDdZwideJUgFQSrKVQCegwAIgAAIgEBtBCDhzZVw3FRWW7tELBAAARAAgR0JQMKbKOHmQB93TRluKtuxISIACIAACIBAtQQg4U2U8GorA+FBAARAAARAoHICkHBIOAiAAAiAAAi0JQFIeFtWW+XvaAgJAiAAAiDQqQQg4Y2XcKPJ2qnNBeUCARAAARDYOwQg4ZDwxhPYO+0bloAACIBABxOAhDdewNAL7+AfDIoGAiAAAnuHACS80yT8u+y+f/0+/3nj1R9taWpyOZPL9L7Tp2fsTC5jGvds8SXEUDhPRplcRmHTha4NR5cnK4+4Y8jQteHY15OS57Z5F/p2DM8H4EphnvDmbbNqea86HbUXtg7C4jaLFFbXb/ecpUSi10xYJE3Wq47CihP+/FKhDd/9fJf+R+1QWNFfB+KCQKsI7NLPo1Ud05bk25JM+Qb0XXbf2vI+inqJol7SGyT8c85BZ9Oes5QmZGFyGcMBR5GvyFf7kRCTy5BaVeDSUPjmqEjIar0Cl4Yit8ckBJnIpj2nxaSoKGUtV4pBp+NImMllZGplUYCav9ZT2JoJi1srUljHibD4S1XNhMVNkhBkzYUVJ2y17uca8J9v7oOE71gLCNDNBCDhYl3P2lpGyyVc5L9efCXpOBFWugxMLqOLWSovoHXax+QyEhnpe28g+NnhyiPuGLJ3sT90dVhCkNSDpPNYdMfwfAClU8/kMlraakv6WdukDavKegpbM2G+XCUdIoXdUcJrJlzSEuHDmgtbIeHvspDwhrVqYcXB3TEEIOGN/4XsZQmP3p2wvRySmzRMLqP2m0q3YxlJGtTGg07H8QgfwDzsTjxJSQjSfSER+HiQf16/wzNPBz5hE4zdm7BmgpUnSBrUbCkCJtOoh16drTzijiHrKWxFhKsflRUp7I4SXjPhHUHVXNgKCUPCd6wCBOhyApDw7pJwfZ9N4dARpNw06pGpt1y+ogmag58djv5igl5LUY9nIjdG/B8c4Lu2cpPGMOiUEKTab9JEzA382aheJKjvsyscuqKUHUfYUWJ6LRW6OqwJbsmXkOVLwdtWFLfmr3yCJQtrOOAI3Ryh11KRu+PGseL1BCKEa7ZHQpAihRVK+H5C5nmboR7PqIKF9zNxwvVYJVJYXcwaujKceJJKPEkFrx02HXLvJ2R8XuKE+WCQcB4FHCBQkgAkvLskvGQjkBBkj11Hr85yIi3VKiNfjpnGveUC79pz1+k4/XDGNO7RBM2e+QS9Ottj0exa7iUzMhx00utpx/GIOmCyzQWobIqDVjLw7jwUSrjrdDzxJNXYd6waSiE3auhs2n2eVvmMmqDZmvJ7F/uFEl5hmpDwCkEhWNcSgIRDwlkC7jdi3Joy7pdgPxKKP0i29lchN2qY9Tl+2fx+Qha5NeY8WcVkeTPsj9wdFy6b95ylQtfYifwWfngJtx8L09m0lm79yUK6GLteUhuqYrFFSYCQ8JJY8BAEeAKQ8Mb/893Lc+F8xRc5fB8eCPxsiH9onvAyuYxUsWWknffdHYdp1MOuM9ep+Ozc5+KBKwUj+ee75uDWEBiHXHyOhkEnsz7HTzfwz3fTwUm4NeVPZNO6fvtuZl0uL6lCEf1qIr6StB8Lq3zGcsF2fA4J3xERAnQ5AUg4JPx5L3yeji5P8kOdjhPh+MMW98JtcwEml6FXZ/lPIpsO32rkfrZqf/wqn4k1aS3Fm0Svpdj3DE0r33U4CecmGlTe2vWyWhri4WVqpf1IKHRtmFmfi94Z01az/YFPGRLOo4ADBEoSgIRDwlkCKp8pkU3bj4QkcrnKa4ytTDtOhEu2mF17aBpnRwKUHkOPXcd/5KZWzoXLrexKfvNkL28P5+BffXYNjjCj/EC6jAxcGqK+mZZbW4lIaBjnJg3qwCeD9OpsDRv3IeHbeeIJCAgJQMIh4XkCrjep+Mo09XgmtjzFbiercps1TQdWHy2ePzcjbF71uOVWTeLZXFXnzxRlZzDol+9duHHttFzesF5y7N5EVefPFJkkIcjLS69++807Lqdtu1dtT/i5cKlKEbk1Fr0zVu2owLGjI08e/3RkpIpzdXY0Vfhaw0435DIqX2GR/I7RuQDlJLwZBldoEoKBwJ4iAAmHhLMEeiz5/qU6ZNIEzYrqDyudPz+7ubH07OkHDWzf7vM09SBpGfeq/CbjkMu/NKh06itP/9BQbHNjaXNjKRAozF5XHr1kSNMhN78iXcfYPAuMabR4X1nJiNxDnU7HmfTKK4dEglXlxUu4hN0sqKG+mQ5cGSJIeeWJ3Pvy/ObG0uWlVyuPIh7ScSTMbSRTeY16xh65MRK/PyWRV2ESl345CW+4weLFgS8I7FkCkHBI+HMCMtL3bj/1aIbJZbhP6NpwVaPWVMy/ubF049rpRrZ1Ken4STh2b4LKpqLLk47jEaKnp/L0VSr10yfv/3L9Q6WysCau8ujlQhoGnZEb7L5w6kHS8zZT7T63q1df39xYoulAufSrfS6UcG5OhF6d9V6sYhPXieNjmxtLJ0+OV5t1ufCkQe0+T8eWpxJP09SDpO+9AYW9eMd/ubjC5+UkvOEGCzOFGwTaiAAkvDMlXEbKZKRMIjhMo4pGKSVVPmP0qwnfhwcrjzU4GN3cWJqcYCqP0uyQGo12c2Np8d1MszOqKv27Pz+/cn+BqHKeoqosqg18/tzMr3/1id1W7x6wavPdMXw5Cd+zBu9YIgQAgcYSgIR3oISXvams/PZl78V+fd+W/UjuC4mqrjM5c3o6+/j9np6G3TVSf0MfGAhtbiyFQ1UMdNefqXgKKrXqT3758dEjLd5KXmTknVtnP7t8ouhhC7/ueFPZXjO4hayQdZcTgIR3moR7e3/M3fJU8qaycs3d99GB8BcjWtqqcOpUfpM17U88SQnPSC8XkX9+/frpc2dbvA+NN4ZzvP76xM/vvFn0sLVfE0zgl+sf6nQNuxe1/uL0KJQbuY8OHiych19/mnWmwN9URlEv2R1/VJTaHjS4yEJ8BYFdIwAJ7zQJr63pkAa1d7E/vpJkJy+/TQavHbZM+YSLimtLFrFAAARAAASaRwASDglvPIHmtVekDAIgAAIgwBOAhDdewFp7wCpftXCAAAiAAAh0NgFIOCS88QQ6+zeD0oEACIDAHiEACW+8gKEXvkcaN8wAARAAgc4mAAmHhDeeQGf/ZlA6EAABENgjBCDhjRew1vbCv8vuK7svXC5ncpned/r0jJ3JZfiruOtvi86TUSaXUdh0oWvD0eXJ+hPMpwCDX2zl56rMPOHNo67+BNxylRK6Nhz7elLyHLXwKvRy4St83mEGT0/8z/zP6q//0y7926wQNYJ1M4FdaoutUrWW5NuSTPlG/F1239ryPm5ruN4g4Z9zDjqb9pylNCELk8tsv0FEbtL4Lw2yYrxNIVR+U+jqML3GHnRqTfqKkrUfCTG5DKlVBS4NVXUgTFE627+WM1imVnhOU/H7U3Q2Hbk9ZhwuPgVdplP1LvbTq7PUt0n3ubh06wHdu2+whCAts/7I7TE6m47fn3KdiRddxy5usJarskGn40iYvd5U3bAjdAKXhiK3xyQEmcimS97goqWt2/GyNSUjHScisZXpxJNU4OPBooNmW2Kw7SgLR/gxT/YWGlUdBqs1BPebuvv5Pkh4AemLV0w8aRUBSHgH9sLvfl62WuMrSceJsNJlYHIZ3dYrnC1TPurRbHR5cruEkwZV/GHS926/wq23jHvpbNo87BY2Weu0j8llJDLS995A8LPDQq863eUMDlwZCt0cMQw4NEGz+40Yk8vo+wp3f+0nZKGrw6GbI5qgWUtbo8uTnnlaaMnuG6xjbLF7E8Yxj9JjMA672JPDPzzAm7SjwUqnnslltLTVlvSzqBt3PmvvYn/oKntaHPUg6TwW5U3iHaErw575BP+Vdzhei1CPZgwDDrXfFLg0FL0zRsgKF5m0xGDb0XDk7rjCquU/wrtVGmLwxxch4Y3/n8k3KjiqJVD2f321CYmHb1XHtCX5tiRTnn+5Y6W5ANG7E7aXQ3ITey+Z2l+4/FEdNlGPZs3TvbqYdbuEO06EqQdJriOrsOkST9ORu1uuxDAPuxNPUhKCdF9IBD4e5I2p31HOYIVdJ1UVrhANfTEc+KSQr5ZmS6HiCiglo7+YoNfTwltbdt9gCUFK5YU7Wrjb0GWafGd6R4NJg5qtsoDJNOqhV2frB8un4JmnOXSxexPWTJB/zjmUHvZtT+U1Fj2XqhT0Wsr+Irx3oY/JZYSd9ZYYzEr48xGFImtZ+A0yGBK+nS2etJAAJLzxb5R7WcL1fTaFQ8deSjnqkakLEighSJmOvc5LG2PH2IsG0sNfjHgv9nPN1PtWgvt/LQwjN2kMg04JQar9Jk3E3MAGLWKwMJfexYHwFyP8E9fr0fjKNPfVOOL2LjDM+pxl3MsHaLnBpkNuKpviL17b0WBClq8y3nK+LHU6VC+qTN9nVziK7xPzvpXg+uhFuej72OUUXHi5VRO5NRa6NuxdKFxy0xKDRSS8UQZDwotaAr62lgAkvLskfMfWVlLCqccz3HnpcpMmemeMGyPVM1uuRdkx5aYGiNwovGRICNL/0UFuPH8/IQvfHO2xauP3p5wnS4wSN9WqcokrPYbI3XH7kRAfYG8aLFMr6bUUN2misGpJfeHOVttcgFmfk8jYn4/7PG0a9/re7Q9da/H1LSIS3iiDIeF8o4VjLxCAhEPCtxAoIeFSkslluCFT9xnKPNnLjZEWTYe3sDWrgiZ2LlzwShG6Muz/mL0p1XjQ2ftun4QgI3fHi6bDW2Kwwq6j11JMLuN7t58gCzPHe9NgayYYX0lydgYuDQnfOZyvRrnxfNKgZmdVZKRnPhG9O9ESqnymtqPh+INk8PIh+uFM7N6Eba5wKXujDIaE87Th2AsEIOFbBKwhVbKXB9J3LGAJCSdYCbdmgqReFb07QZBy0qAqmvjcMdkmBpDLwzdHhUvDJAQZ/OwwNyUf/mJE6TK8kPASa7KaaFipxbpSuVxh12lpa/jzw+HPD/MqvjcNjt2bcLyWv8EseO3wFgk/lpdw56kYt0PBPU8XrZDYZbbsNFDU4jgS1tJWldfILd3nd046G2QwJHz3qxU5ihCAhEPCtxAoKeHcQLrzZJTr1iicuqJer0gLa6rXfkLmXeyP3Zso2mTl/+hg4MqQnrH7Psqv+o6vTO+dgXQJQSqsWvY1aCi/F24PGmwYcDDrc3KrhqvB6J0xoYTb5gKJZ3OkXhW7N8Gtc/Qutn4gvaixBX42FPg0vz+iUQZDwosg42trCUDCtwhYQyqj83rh4S9G/B8fjH41wS2/0vU/X8q0be94Q+hVlYjzVCy+Mq2wFS/Ccr0ejS1Pha4Oq4LsqnupSpF4tmU5W1W5NClw4mmaX9G9Bw12nY4zuQydTXOfxLO5xFN2RztHg1sd5r3Yb3slv4g9fH1EuJytSdCqStbzNsMvUG+UwZDwqqoAgZtNABIOCd9CoGQv3HGCPTHDdjTMNUfPfKLaIdNjR0eePP7pyAjVwAZtPxaOryS5cfKiZLk9WsHLh7jnxmFX0aayovDbv9J0YPXR4vlzM9u9ansi0yhIbWE5mNq/Zf5+DxpM6lVKp57/sOsBT8V67Pm3JW6PFv1whtvaJzdp6PW0cFPZjpQaTpjN8fnyOi5rdqv9zRHfh+ySCH5TWT0Gc+mUk/CmFKfUXAxnBv6CAEcAEr5FwBrSLNqxF76fkPXYdT12nXHEzR4hErP02HX8rmXSoKYfzrgvJJQeg2Xcm9h2tMuO3O59eX5zY+ny0qs7hqwwgD0TpLIp06hH7TfxH/4/OLsQ/fPDoS+G1SGTLm6N35+qdi3b/PnZzY2lZ08/qNCeHYN5F5jY8pR52K30GAyDzuhXE8IzcPagwUUlin41IRxIlxCk82SUepA0DDhUXmPgSvHRLkXRt39tOGGpQsFO3p+IaGMWTcjivpBIPE1rQhY+6zoN5tIpJ+ENLw5vNhwgIEIAEg4Jf95HeX5EtvBkSiaX4TaSca1H5TeFPz9MZ9PR5Ulb0i/SpEp6nTg+trmxdPLklgNhSoas8GH4+kiRtYlsWnhmGalX+d4boFdn2ZePbQes7pgLFfNvbizduHZ6x5AVBpAqFOxxpPcmqGwqtjzlfiPGbwrnUthrBheVK3avWMLZA1Zfi8RXkvRaKvBJ8QGrRdG3f204YQlBakKWwKUhttJXZ4OfHdZuPX+wToO5IpST8GYUZzs0PAGBIgKQ8M6UcBkpk5EyCSErqu9WfT1/bubXv/rEbit0iVplSYX5Dg5GNzeWJicKZ5VUGLFVwWDw7pAvJ+Ftx393cCGXZhOAhHeghPNXKr3x6o+a3YAqTP/OrbOfXT5RYeC9EOzM6ens4/d7ehp2m0izCwWDm0p4x5vK2o5/U3Eh8V0jAAnvNAn39v6Yu1KJol7aflPZrjUsYUY9CuVG7qODB/M7jIVee9Z9/frpc2eTe9a87YbB4O1MGviEv6mMol4KBP/99pTbjv/2IuBJOxKAhHeahLdjK4TNIAACIAACNRCAhEPCG0+ghoaIKCAAAiAAAtUSgIQ3XsBau6ms2haA8CAAAiAAAm1KABLeeAlv06YAs0EABEAABNqLACQcEg4CIAACIAACbUkAEt6W1dZe74mwFgRAAARAoBkEIOHNknDvwfRPf/tv3OfU479pRuUhTRAAARAAgW4mAAlvloTLVQZzsN8c7J9Y/AoS3s2/MZQdBEAABJpEABLeLAnnK+zAG59CwnkacIAACIAACDSKACQcEt50Ao1qrEgHBEAABEBASAAS3nQBQy9c2ODgBgEQAAEQaBQBSDgkvOkEGtVYkQ4IgAAIgICQACS86QKGXriwwcENAiAAAiDQKAKQcEh40wk0qrEiHRAAARAAASEBSHjTBQy9cGGDgxsEQAAEQKBRBCDhkPCmE2hUY0U6IAACIAACQgKQ8KYLWLleOE0HVh8tnj83I6wPuEEABEAABECgQgKQ8JZJ+Pz52c2NpWdPP6iwqhAMBEAABEAABIQEIOEtk3Aq5t/cWLpx7bSwPuAGARAAARAAgQoJQMJbJuGDg9HNjaXJCabCqkIwEAABEAABEBASgIQ3S8J3vKnszOnp7OP3e3qUwvqAGwRAAARAAAQqJAAJb5aE8zeVmYP9Rk9se31cv3763Nnk9ud4AgIgAAIgAAKVEICEN0vCK6GPMCAAAiAAAiBQMwFIOCQcBEAABEAABNqSACS8Laut5lc2RAQBEAABEOgYAh0u4R1TTygICIAACIAACBQRgISjFw4CIAACIAACbUkAEt6W1Vb0IoavIAACIAACXUigKyT8T41P/8Xwt9wno53twmpGkUEABEAABDqPQFdIuK/HF1fF4qrYP+v+ChLeeY0YJQIBEACB7iTQFRLOVy0knEcBBwiAAAiAQLsTgIRjLhwEQAAEQAAE2pIAJLwtq63dmVlOnAAAIABJREFU3xxhPwiAAAiAQP0EIOGQcBAAARAAARBoSwKQ8Lastvrf3ZACCIAACIBAuxOAhEPCQQAEQAAEQKAtCUDC27La2v3NEfaDAAiAAAjUTwASDgkHARAAARAAgbYkAAlnq+3Y0ZEnj386MkLV/06EFEAABEAABEBgdwhAwlkJv/fl+c2NpctLr+4OdOQCAiAAAiAAAvUTgISzEn7i+NjmxtLJk+P1A0UKIAACIAACILA7BCDhrISfPzfz6199YrdZdgc6cgEBEAABEACB+gl0hYTveFPZnVtnP7t8on6aSAEEQAAEQAAEdo1AV0g4f1NZXBXTkvoiuD0K5Ubuo4MHI0XP8RUEQAAEQAAE9jKBrpDwvVwBsA0EQAAEQAAEaiMACWfnwvEBARAAARAAgbYjAAmHfoMACIAACIBAWxKAhLdltbXdqyIMBgEQAAEQaDgBSDgkHARAAARAAATakgAkvC2rreGvckgQBEAABECg7Qh0hYS/Z7jwL4a/5T6/MH/RdpUEg0EABEAABEBgO4FukfD/bPyPcVUsroq5epzbKeAJCIAACIAACLQdgW6R8N8aN9uubmAwCIAACIAACIgQgIRjLhwEQAAEQAAE2pIAJLwtq03kpQxeIAACIAACXUIAEg4JBwEQAAEQAIG2JAAJb8tq65IXTBQTBEAABEBAhAAkHBIOAiAAAiAAAm1JABLeltUm8lIGLxAAARAAgS4hAAmHhIMACIAACIBAWxKAhLdltXXJCyaKCQIgAAIgIEIAEg4JBwEQAAEQAIG2JAAJb8tqE3kpgxcIgAAIgECXEOgiCScJBUkoCIm8S6oWxQQBEAABEOhsAt0i4biprLPbMUoHAiAAAl1IoCsk3EJauWvKcFNZFzZxFBkEQAAEOpVAV0h4p1YeygUCIAACINDNBCDhWM4GAiAAAiAAAm1JABLeltXWzW+dKDsIgAAIgABHoMMl3GiyoqZBAARAAARAoCMJQMLRCwcBEAABEACBtiQACW/LauvI10kUCgRAAARAoCoCkPAmSvjib/7w09/+G/fR2QNVVQwCgwAIgAAIgIA4AUh4cyW878SH5mC/OdgvJVXiNQFfEAABEAABEKiKACS8uRIeGDteVX0gMAiAAAiAAAhUSAASDglvIoEKWyGCgQAIgAAI1EAAEt5EAVv8zR/QC6+hUSIKCIAACIBAJQQg4ZDwJhKopAkiDAiAAAiAQG0EIOFNFDD0wmtrlIgFAiAAAiBQCQFIOCS8iQQqaYIIAwIgAAIgUBsBSHgTBQy98NoaJWKBAAiAAAhUQgASDglvIoFKmiDCgAAIgAAI1EYAEt5EAUMvvLZGiVggAAIgAAKVEICEQ8KbSKCSJogwIAACIAACtRGAhDdRwNALr61RIhYIgAAIgEAlBCDhTZbwiVcJUkGQikoqA2FAAARAAARAoHICkPDmSjhuKqu8LSIkCIAACIBAVQQg4U2UcHOgj7umDDeVVdUoERgEQAAEQKASApDwJkp4JRWAMCAAAiAAAiBQGwFIOCQcBEAABEAABNqSACS8Lauttvc1xAIBEAABEOgkApDwxku40WTtpCaCsoAACIAACOxNApBwSHjjCezNtg6rQAAEQKDDCEDCGy9g6IV32I8ExQEBEACBvUkAEt5pEv5ddt+/fp//vPHqj7Y0O7mcyWV63+nTM3YmlzGNe7b4Eo1H4TgRZnIZ7uM4Ea46u6YZ7DwZZXIZhU0XujYcXZ6s2rAmsKrHBvHi/PlmoUkcmfuf6skIcUEABPYUAUh443Wrtb3w77L71pb3UdRLFPWS3iApam10Nu05S2lCFiaXMRxwFPkqbDoml6FXZ6XyniKv2r5KVQq5SSM3aaLLk7VIOEGKG1ybVRKCtB8JMbkMqVUFLg2Fb44K0/G9P8C9c9Crs9E7Y47jEalqrx+uJ1IcCUH6ff+eaw//3z/sg4QL6xpuEGh3ApDwDpTwu5+Xrdb4StJxIqx0GZhcRhezFDVf21wg8WyOyWX0jL3Iq86vsXsTtUm4uME1W2Wd9jG5jERG+t4bCH52WJiO7/2B8BcjCrde5TUaxzzxlWTg0pAwwB50ixRHaC0kXEgDbhDoAAJl/9c3tmyt6pi2JN+WZMrX13fZfSISHr07YXs5JDdpmFxG7TfxsThH4MqQ78MD8ZVp9zxd5FXn15olXNzgmq0yD7sTT1ISgnRfSAQ+HhSm43t/IHCloNm2uQCTy8jUe7ojLlIcYdEg4UIacINABxCAhHdXL1zfZ1M4dAQpN416imRJplHS62nLuNd7IRG/P7WfkPHt2z1PexYY2yvB6PIkvZYKXBlS2HQV+nLBRCTccMARujlCr6Uid8eNY8XT8yIG8wbU4JCbNIZBp4Qg1X6TJmIWplAs4Uk/vZ6WyuVcGPOwO3RtmHo8Sz2aDX52WBsqjGSQBhWTy6h8Ju8CE78/RX2bdJ2JC1N2vBaJfDmeeJKKryR7FwfkRg3vaxx2xe5NqHzGwKeHqQfJ2PKUabSAQqZWei/2x5an6Gw6ujzpPBklyLw9XAoixeGzkBAkJFxIA24Q6AACkPDuknCRJmsa9TDrc6RepT/gYPvogUIf3T1P09m0962EVKGQGzWRW2Ohq8N8UuK+XLByEm446KTX047jEXXAZJsLUNkUp6x84rvvEEq40mOI3B13norxZqhDJuOQS+03qcMmzwJDP5yRapWcLyfhsZVpbhpCF7cyuYyWLhwSYBh06vtsKp9Jx9iC1w4LB/CNw67E03To5ojCzr4bOV+N0mspfg5+PyGzTvu0MYvKZzIdcsdXks5jUd6kyh2Q8MpZISQItAUBSDgkPE/A995A+HN2Vpjo6aHXUsKpa/c8Hb0zxvfLjcMuJpfpeS427Fi0qC/3Mygn4ZG7496FPv6n4jlLha4VXg7457vp4JezcYvaet/tK7e4T6ZRCtcNcBIu7D3T2bQtHShpvPGgM/FsjujJLxvkkMpN+X65OmRiO/ReY8m47jM1UoKEl+SJhyDQvgQg4ZBwlgBByqnHM/YjIa4pBz4ejNwa45u1e54WKiu3Gk7fZ+MCiPtyYUpKODclbxxy8RkZBp3M+pxE2vhK4bPY0cEuZ7s+ovIZVV6j4aAz/MVI6OaIVJGfC5ebNO4zVPTOWPxhkno8y+QyxuG8/ZyEC1cCxh8meaTsoH3A5HtvIHZvgno0Q6+ycUmDirOHk3B+uF7pYdcbqkOFgRDDYVfgyhA7Pv94ls6mI3fHdyzI9gCQ8O1M8AQE2poAJLzxarGXl7OVa6zcTnGly8AFME/3stumrVrua5FI91jY1XD8vLW4L5dCSQlX+di+Jr2Woldn85+1FLt2TNPKtWPCgXQJQZIGNZPLWFN+CUFKFYrY8lTgypDSqee+iks49W1BwtV+UyKbdp+Lk3pWtnX97Nb8chKucOuFEm5NsfPxlnEv9ybhfiMGCS/XkvEcBLqKACQcEs4ScJ+n+TNYeIdtLj8IXCTSKq+RHUB+sa1c3Jf7OZWUcLmVfRUwT/b22HXCDz9i35KfYpGESwiSfjjjPkNJCJJbJcCPb0sVisol3HU6Tj2a4UtUlYSHbo74PjzAx4WE8yjgAIEuJwAJh4SzBGJfT3rmE+zo8YtP5MZI4NP8hmn3PC08/4TbPk4a1NyPR9yXC8MuCjtZYgVW7N6E5zSrjrV9DAb98r0LN66dlssb1nEvknBSz64zt2aCEoJkx/lzGYUzvxpfYdVWLuGes1R8ZZovpmXcW3kvPHJ7zLvYz8f1LjCN7YUfOzry5PFPR0ZqrwjeNjhAAAR2kwAkvEbxEKmkthtIV/nZAW1NcMveKvuRUOJpWqZml1u759k+umeB0QTNxjEP9XjW994AT0DclwvWuzgQ+XJcG7Owy6qDhSle0yE3vyJdx9g8C4xwORifRTnHoaHY5sbS5sZSIFCYUC8XuMLnvvcHIjdG1H6TKmgyHHZFbozE709xy85Jg5peS3kXGLlJow6bwrdG6dVZ/tVk+1y4cCDdcJCVf8usnzSoTYfcseUp4VK4ornwooF015k49XhGF7PITRr7sTD1iJ13kOny8+gVlktkU9m9L89vbixdXnq18qQQEgRAYC8QgIRDwknH8Ujs68mi4WuFnT1slRNU9zwduTHiOU3RD2eox7O97/Tx+504gRfx5Vo5aVAHLg3R2XR8pTA9zHkZBp2RG+y+cOpB0vM202Mp7Jbe8ReiUqmfPnn/l+sfKpVV61m5xPkV6fR6OrY85X0rwS8UZzviA47I3XEqm4rcHjMMOo1DruC1/FiFuIRLCNLxk3BsZZpeSwUvH1J6DM6TUff5/BE64hIuVSh63+mjV2epRzPsC4RR41sa5NcilCvI9ufllrOdOD62ubF08mQtS+S254InIAACu0YAEt6ZEi4jZTJSJhEcz1JPkyqa7S5KSty3KHBjv2o02s2NpcV3M41NtlNTKyfh58/N/PpXn9hthWNqOpUAygUCHUYAEt6BEl72prJap5zFRVrct6k/mIGB0ObGUjhUOMisqdm1aeI73lR259bZzy6faNPSwWwQ6GYCkPBOk3Bv74+5a6lK3lRWW1sXF2lx39pyrDDW669P/PzOmxUG7tpg/E1lFPWSVl98eV2PQrmR++jgwUjX8kHBQaB9CUDCO03Cm9EWVV72nJNyKYv7louF5yAAAiAAAnUSgIRDwhtPoM5GieggAAIgAAKVEICEN17AWruprJJaRxgQAAEQAIEOIAAJh4Q3nkAH/DBQBBAAARDY+wQg4Y0XMPTC9367h4UgAAIg0AEEIOGQ8MYT6IAfBooAAiAAAnufACS88QLW2l74d9l9ZfeFy+VMLtP7Th93L5lpvDHbqdVhk0hSxmGXLm7d/V8CV0bzhNd5Miq8da1+S0LXhmNfT0qewxRedl5/yvWkoHTq6YczjiPhahNpUnGax19YQOOQS3i7K+flmafj96dkGvZs4Ao/cqvGkvKL3HLbvOI0iX+FBW94MJHi9Cil/L+mf/1+n9FUvL+x4cZ0Q4KQ8Ep/5JW3hpZL+NryPm5ruN5Q/COhs2nPWUoTsjC5jOHFVWN80fR9tuBnh6nH7G3Wwc8OGwYcvJeIQ3xfeLkLTkQSbIiXlivjoNNxJMxeYPr8sPeGpBy4NBS5zV6mnsim+TtauNNV+UvehA7TuLch+YononDq4g+StlfY61iq+pQsTlUplAwswt9zluL40Ovp+P2p3nf6el5ca1syKZGHvo8OBD4eLArgPk9HlyerqvGiA26LEpQQpEhxtgeu6ok4f6XL0LvYH19JspfE3x5jLw+UVVe/VRlTYWCpVkmQ8pKBRYsj4/4vvfHqjyDhJenV8BAS3vjfQ8sl/O7nZas1vpJ0nAgrXQYml9HFthyoaU35mfU593laz9gNAw73eTp0bZiQlf6hCpva3pRwpZO9cltLW21JP5PLiHSwhGWpxN272B+6OiwhSOpB0nksf/0aQcq5S1y0MYvv/YH4/Sn+a1XdwUoMaGyYksWpPwsR/p6zVPSrCaVTr3Dr9QccoZsjsZXpGm5tkRBkSQmvwfgdJVykODVkJ4wiwl8dNlGPZwI/GzIMOrW01fGTcPSrCYUtf1GeMJHddKuf34qkcOtLZipSHD780OC/g4TzNOp0lP1fX2e6RdFbpWotybclmfLAv8vuE5Hw6N0J28shuYm9qFvtL9wYpnQZEtk0f0E4l1rRxSd8FkWO3ZFwmVqpjVncZyiip6fIgJJfSYOaLWPAZBr10KuzJcPU9tAzTwc+YXt+sXsT3CWkRem4zsRj9yaKHu7ZrzsWpzbLRfh7zlLCy1IVDvZCnaK2V2GmuybhIsWp0NRywcrxl8p7YvcmfB8V7omXEGSFP8lyeTXkubiElyuOMGtIuJBGnW5IeHf1wvV9NoVDR5By06hHpi7cse08FWNvs5aWpqHymwKXhtjRvDX2hq6ikWFOwk2jnuhXE/RaKnBlSGEvdBQid8ddr0edJ6Pxh0nq0ax3oU+oweZhd+jaMPV4lnrEDt1rQ1sGBkiDqndxIHZvIv4wyazPhW+OBn42xF/XLVMr3RcS1IMkd/kpqd9yWRkhy5dRbtIYBp11/k6E0VV+kybCXsyq77MrHIWS8mFKSniJe8wez/JvAFrayo0tKz0G40Fn9M5Y4mmav9HVOOyK3ZtQ+YyBTw9TD5Kx5Snhlawqn5Eft+eGB3hLJAQZuTtumfV75mnq2yT1eIadvJdvGVnZsTjC1Cp3i/AvkvD9hIxeT7vfiHGJizc2gpS7z1BsWR7Nus7EfUuDwoF030cHeBRaungFhsKq9b03wN62l01F7o7bj4T4psj1wpUeg//jg4knqSLCEoIUKU7lTEqGLMffMOBgchmly1AyFnvx3WuRyJfjiSep+Eqyd3FAbixc8SfenBwn2Kkl+uHMfkJmPxaO32fvvbUl/XxGesYe+mKYXkvFvp50nAjzQ/ecePOEOQd3Dy8ft1xx+AASgoSEC2nU6YaElxaterDu5V54uXKFbo54L/aX85UbNZZxrzZkUftNtpdD9HpaOAjvnqfp1dnAlSFNyKJn7PH7U6GbI3xS7NWcj2dcb1Iqn9E83ZvIpl2n47yvOmQyDrnUfpM6bPIsMPTDGf4/AiGTR26PeU5TbM9DSvYu9nsvJPiIEikZ/mIkcmtMz9i1MUvo6jCbaZlXkEKsKueJa4tYg4RL5T1yk4Z+OON+Ixa7N2EYcPjeH+DLaxx2JZ6mQzdHuHcj56tRei3F3/dKyORyk0Zu0ngv5kf4hWZH7o7TaynzdK9ESnIDs44TLT4OvUjCFVYtk8tYp32c2eKNzTOfYIsz2cvd1srkMkIJl2qV7FXuz0d6t0t45PZY8LPDmpBF5TWah93+S4P8ax8n4ZEvxw2DToVD577A5sITFvLcNbfrdJz6ZlokO8OgU99nU/lMOsYWvHY4+Fn+0lsJQYo3J6lKoYuzr4yu12PBy4fUIVPs60n+pVATMbNvVGcoTdBsGvdSj2b5K3ElMpI0qHSMjZ2iillIg4oHKGLndi9I+HYmNT+BhEPCWQKxlWnnqXw3aMfGFLk15jyZnwPm7guPfjXBd2jMw24ml1EF86P0kbvjvYuFlwO2O/h4tuQUu0yjZHIZfoGxrt/O5DKkNt+35tYT8Z0S47CLXk/3vOjukwY1lU3xcXcsQlMD1CDhnD1s5zKb4mYZvQt9fMeUExj+2nJ1yMQS3nZqvfdComQvvPAvmCDdz1drN7X4OybOS/h+Qqaw6dgBnvtT5fRS2NhIrYpeT/PrDyQEGbg0JJRwLmtunqhYwqVk4tmc/UiopHkcYR6p6vlLAP+1ZJRmP+xdHIjcKLwKi2dnPOhMPJvjf4Nc4HLNSUKQCje7UiR6N/+zjS5P6vrtXCz/pcHQF+xSD+5jzwSZ9TnhSgXxgXQ+oogDEi4Cp1ovSDgknCUQX0mKSbhcbns5FLkxEn8+as2+pM/TfFMrmguXG9mJdn6bWdGKdOMIK/CKFyuQ5SaN+wwVvTPGDrM/nmVyGeOwi0vZlg4knqb5XBQ2dsaU/0fjvpCI3mGXhfOfyO0xx/EW9y85Y+qRcN/7A1wi7FvOi7XHnMBIXwyAKz3sakR1qLCUgYtSTsKF71vc4r6i//U8w91xeM5SiWdzdDadeJpm1ud8Hx3osRQGgSXlGxv3VqcOFwpeci68tIQTpO+9ASqbcr1JsbscX7DlilxEmFO47YR3hw+XS+9iv7iEqwMm33vsNBP1iN1Cwr7vGrbMJVHfJks2J17CLbP5wXOpvLC+hF6dFTYYbppGuDkFEr6bzWDHvCDhBQ3YEVaFAdpxID18a9T3bqGvXFTS3g8OcEusuZ96+PqIiIQTPT3s1NrL+e5OkYTr+9hROHWA/S8sVShiy1OBK0NKJ7u6VapQCCWc+6/Kiz03vaf05KcG/R8dpNfT9Oos/2HW51xnCkP0RUXYza/1SDg/Oy40uEKBqUTCjWMeJpfZIpmC1yBhps1z8yvSbS+HqGyKr1MuR5HGxhkvXGlRlYRLpKRp3ONfGqTXUvEHSV7AJARZIeHmMdmesutMPH5/avtz7onab0pk0+5zcW4oOz9ktU3CSzYnXsKFC1q5ZAmSPTqC//FKCLLHwr6RG8cKZ0hAwstVSkueQ8Ih4SwBz2mKPa6k1H9zmUaReDZnSwd4X3EJ5/pA5sleLnyRhJtGWQnh/gvrD7ALdvjhyiIJlyoU0eVJ34cHpVolqVeFrgwLR4k9C0zk1liPXSf88PPovKktcexlCbelA893yRdWMu4+IuFAeujqMNvXfNEnFm9s3PkqKsFOiuok/EXzJnp6uCVd/GD7HpRww/NfR8n1khKCZGfKH83wddcoCWdPO3iS2t4L1/flh9klBAkJ57HvBQckHBLOElB6DImnafaAqhf/5rhusYQgSa2KyWXY9VCcl5TdTFXcCxesXzONsyLNT1qzK9IF69e8C33xlSS3N8Yw6GTl3Jlf1M0ta+IH0tm+0ZCLfjhDP5yJP0j2vtsnVGjjmIfOpotGDoXG7+im6cDqo8Xz5wr/B3eMUmGAkhIuU7Mz/fyApFTek3iSKuokUd8mi55wOVYoMOV64e4zFG+5/6ODwg1d/HMRx+WlV7/95h2X0yYSpiovXsLZhufUU9mU7Wj+UDnxxsa+Ha7P8W+H1c2FCxo227a1bHXwO9kqJCxSzIY3J6lczr7Cvjcg3EgmVeTfvTxnKXYLyYtCWca9JQfSSzYnkV64hCCDlw+FPy+sjOPms4RnG+TncQQvUrwZFTrKzYUbDPrlexduXDstl7fyFbPCUuyRYJBwSHieALduxXOW0vfZ9Iyd3brzaIY0qCUEGb41Gro5onQZFE4duy1ndTZ0pXDqi3ueTjyb85yllC52Q1R8JelbKhyYxa6IzqbN071Kl8E2x05v8yeIkQY1vZbyLjDsKuKwKXxrtGgeLvrVhOtNil0JHzKx7wSCBeeETB6+ORq5MaLvs6uCJvN0r/+jg0XbpcR/Y/PnZzc3lp49/UA8WA2+JSWcXTP49aTrTXaBPWlQ+z48kMim+f+whExOalXxh0n7sTC7gu9Fr5TLXVxguOXH+RXpXwxzq9P5BYMs/3U2I03Q7DgeYQdUBNuHdiydTqfb3Fja3Fh65ZVDOwauMIBQwtnNUccjwuF08cbm+/Bg7N7z401kpD0TTDxNC5ezyXQqfkW6cdglN2n41z5t1BL9asKa9GmCZnXY5F3sZ9bnVL78tLo44UrK1YzmpI1a6NVZ/6VB45BLF7PYXgnGHya5t0DDQfb11zLrJw1q0yF3bJndGMYv5xRvTkRPjyZiZleWxK08H76MupiFWZ9z/v/t3flTFGfiP3BXCYmaeMWDyDE93QMM1wAitzDcMyAqEFEhCAKRuAiRBCHjFUNETMYYDSJGEYIniKh4ZZLZTbImm+STc7N+NsGYxKpP1f7wqfr8Bd+t3apvtU16mp6DnpkeZnrmXcUPTc/TT/fzeh549zn9cr4yKy52Y5rmSjXv+pRcEUo/xnZwbWRWfJQ2IbZ04uYVtoYpJ6xFeFlpPjPY1Gq765xypd5aABGOCDcJRBcnqo+Vaq7QF5izu9ezj1OHJUVnHX1WO1abf74ysZH+crfcUxvZq9Spu7QZnWvS2ujIpx/R3l/MfeI8d2BT0vbcjEcXIDUXqxIbc7hHFao1SfRTZ2P04+aqkuTY0pSsHtMRQGJ9luZiFfscasGF57gPs8mj6OfCCy7Rd3Fnv1setyGNW/OUf7Ga/EyjQX+yp3XKkvYWsBbh0fkJuf0bNVeqc0+WRxeuzO5ez0Y4+yAv01jejVS2A4a37EQNvx8k5Q5sSt9XlPnGOu31LZqLVezxrvBGdXe3GA16rdZ0JUX4shZL8iKcoBS5/RvZ0+m2BxsVpczoXPPoYWj6GYpUnZYb4dnd69nRwkywn8oVofS3m/Vt1IxtYZ6BjC40nVewLWyxFbyZLhpOYakx7Bes5vVtpJ9l//2bTZNeyMm/VKW9viXrSBnziB376AFvSPCGE3MRgfHRjpnuGGVbRP9Vniynnws/9xx9iyhn15kpE5kVn3OinPmHwD3HxtZge8JahCuVETeudd652RUePum+PNu1+finiHBTgIk1FDzhdjaSIkmKlBGkWI1yez2KuMjMN9ZphjbzjlAd3rCSkjyjQV9ZUeRwDZJYkHcvggPbPHBGd+nCPsLs/7gDVXnxIj4ynETpQWsRHhkZZTToO/bXi7IWH6kEEe6FEc6+Duilpj9Idxyv3JrFe+8WcyucXa+vsNH8na1VY6OdoaF2vM/KRm0e+5GTEa6MUH5w541tDaYHhT22pe7dMB8ZTs4gT/mmsjVrso0GfU626e53Z1bnI8siwr0twtNXBTGvA9JoAszfVCahYb2yTq0Z3hxXlhqeogpPU9EX/AYr1MdKxWpCb29re9tmsWrz2HqcjPDCIvWdm13R0VEe20AP2TAfGU7OaU+8qYz5ByUn+ecIW1oqzvS94twqxP9/7uHbgwgXv8vdeyLdwwecHZtHUsk78vLOVjAXL3P7NyY35XGvsttR1e837vrgItH5K9z7FLgPmqPJEJg2AUQ4Ilx8gWkbvlgRBCAAAV8WQISLH2A4Cvflvyi0HQIQgMC0CSDCxY/waes8rAgCEIAABHxZABGOCIcABCAAAQhIUgARLslu8+W9TrQdAhCAAAQYAUS4qyI8fV3tga/+w/y8PHofAw4CEIAABCAgrgAi3FURrlCq4rOK47OKKzrOIsLFHbWoDQIQgAAEZASFCHdVhLPDa+1LbyPCWQ1MQAACEICAWAKIcES4ywXEGqyoBwIQgAAEuAKIcJcHGI7CuQMO0xCAAAQgIJYAIhwR7nIBsQYr6oEABCAAAa4AItzlAYajcO6AwzQEIAABCIglgAhHhLtcQKzBinogAAEIQIArgAh3eYDhKJw74DANAQg0P1x3AAAgAElEQVRAAAJiCSDCEeEuFxBrsKIeCEAAAhDgCiDCXR5g1o7CtVr11SsduvZqbn9gGgIQgAAEICBQABHutgjfpasxGvS3bhwU2FUoBgEIQAACEOAKIMLdFuGa/EyjQX+yp5XbH5iGAAQgAAEICBRAhLstwktK8owGfWVFkcCuQjEIQAACEIAAVwAR7qoIn/JNZTtbq8ZGO0NDw7n9gWkIQAACEICAQAFEuKsinH1TWXxWcWxavnl/9Pa2trdtNp+PORCAAAQgAAEhAohwV0W4EH2UgQAEIAABCDgsgAhHhEMAAhCAAAQkKYAIl2S3ObzLhgUhAAEIQMBrBLw8wr2mn9AQCEAAAhCAAE8AEY6jcAhAAAIQgIAkBRDhkuw23o4YfoUABCAAAR8U8IkI/yT2xv+pfmZ+6qNqfLCb0WQIQAACEPA+AZ+I8IzQjAJlfoEy/3+jf0SEe98gRosgAAEI+KaAT0Q427WIcJYCExCAAAQgIHUBRDiuhUMAAhCAAAQkKYAIl2S3SX3PEdsPAQhAAALOCyDCEeEQgAAEIAABSQogwiXZbc7vu6EGCEAAAhCQugAiHBEOAQhAAAIQkKQAIlyS3Sb1PUdsPwQgAAEIOC+ACEeEQwACEIAABCQpgAinu61xW/m10QPl5Rrn94lQAwQgAAEIQGB6BBDhdIQP9uuMBv0RfdP0oGMtEIAABCAAAecFEOF0hDdv32g06Hfs2OQ8KGqAAAQgAAEITI8AIpyOcF179Yfvv5m4csX0oGMtEIAABCAAAecFfCLCp3xTWd+ptqNHmp3XRA0QgAAEIACBaRPwiQhn31RWoMyPomJ4uKFh4Ybbh9aty+XNx68QgAAEIAABTxbwiQj35A7AtkEAAhCAAAQcE0CE09fC8QMBCEAAAhCQnAAiHPkNAQhAAAIQkKQAIlyS3Sa5XUVsMAQgAAEIiC6ACEeEQwACEIAABCQpgAiXZLeJviuHCiEAAQhAQHICPhHhr6v2/J/qZ+bnvfgTkuskbDAEIAABCEDAXMBXIvxvsR8XKPMLlPkpocnmCpgDAQhAAAIQkJyAr0T4V7FGyfUNNhgCEIAABCBgQwARjmvhEIAABCAAAUkKIMIl2W02dsrwEQQgAAEI+IgAIhwRDgEIQAACEJCkACJckt3mIzuYaCYEIAABCNgQQIQjwiEAAQhAAAKSFECES7LbbOyU4SMIQAACEPARAUQ4IhwCEIAABCAgSQFEuCS7zUd2MNFMCEAAAhCwIYAIR4RDAAIQgAAEJCmACJdkt9nYKcNHEIAABCDgIwI+FOEUEUYRYYRM4SNdi2ZCAAIQgIB3C/hKhONNZd49jtE6CEAAAj4o4BMRvoJKYF5ThjeV+eAQR5MhAAEIeKuAT0S4t3Ye2gUBCEAAAr4sgAjH7WwQgAAEIAABSQogwiXZbb6814m2QwACEIAAI+DlER4bl4CehgAEIAABCHilACIcR+EQgAAEIAABSQogwiXZbV65O4lGQQACEICAXQKIcBdGeMcX/zrw1X+Yn+hEtV0dg8IQgAAEIAAB2wKIcNdG+Ormrvis4visYjmltN0T+BQCEIAABCBglwAi3LURrt643a7+QGEIQAACEICAQAFEOCLchQICRyGKQQACEICAAwKIcBcGWMcX/8JRuAODEotAAAIQgIAQAUQ4ItyFAkKGIMpAAAIQgIBjAohwFwYYjsIdG5RYCgIQgAAEhAggwhHhLhQQMgRRBgIQgAAEHBNAhLswwHAU7tigxFIQgAAEICBEABGOCHehgJAhiDIQgAAEIOCYACLchQGGo3DHBiWWggAEIAABIQKIcES4CwWEDEGUgQAEIAABxwQQ4S4MMByFOzYosRQEIAABCAgRQIS7OMIrmggqjKDChHQGykAAAhCAAASECyDCXRvheFOZ8LGIkhCAAAQgYJcAItyFER6vXs28pgxvKrNrUKIwBCAAAQgIEUCEuzDChXQAykAAAhCAAAQcE0CEI8IhAAEIQAACkhRAhEuy2xzbX8NSEIAABCDgTQKIcPEjPDYuwZuGCNoCAQhAAAKeKYAIR4SLL+CZYx1bBQEIQMDLBBDh4gcYjsK97I8EzYEABCDgmQKIcG+L8LtjM/79z4mfl5r+4JnDDlvlOQLfGE0DpqFutudsGLYEAhCYUgAR7oURfv3cDI0mQKMJiFHJeCMgVEEeejH415FZDRvkvI9U0WT/3mf+cfGxvw3Ofuul4FAFySvg2K/lWurmW0t/uvT438/PPbVruSqaX21dmfxu76LxYf8Pji1el8f/1LGVRkbQzfyyb/794Zmf9C7YUcVvbN4qeqvuD/l/fnrBi5WEY2uxttQKFbmnXqag+EOLJMmOxpBvB+f+dOnxS68HJMaJ09jVOfKHo37cn9O7g7jbZruxmRnLmdHy//5nBiKc64ZpCHi+ACKc/3/W+T5z74n0u2MzBo5b7tbibPmnJxd+fnrBw1E/swgnb7619MPup7VZZGkB+cWZ+e/snBQDjrGsyyN/Hn7stW0yTSZZsVr+2bvz7ry9hFvVei3525WZbTVEVirZ1Rz806XH0xJFCLbXt4eMvhmwsUienUbuqpP9MjKrtdqU0/Eq8odzs/t2B6pT5S9skI8P+9eVmj7lbp5j069tk/2ld5H5sq9vD7l3fm7Fanl+Bnm5c9nHPQspUoThx0R4XjqZnDDxExVhqlZ4YxHh5l2GORDwcAHL/+tF32h3pZpb1uuWlbJdZi3Cw0LJv5+fe7glODyUMo/w0gLy4ahf3ir6X79cTn56cuEvI7NWxpqSgK3fzgmSqZNZakMhvZaCDFNI3zy89OLrAcynDRvoo8ljYuw6kCQpl5vWckIX9KduU6Z2bAv5/uwc5jRDagL14LKfxcS1s6UTVgqK+nZw7kvV/PMfEeHU+JB/W83EvsIJXdDDUb8tYuw6MBGuijK1l7vlwhuLCOe6YRoCkhBAhDufUvwaPDPCZQTFnsQ2j/Cu5uBvB55khmxdmfzkruW/jsx6wexku5NjOiOZ3nvYUDgRNhHh1K8jsxor6LPcBEF+dHzx6T2BX56e7+RazBc/2hp08/BSdr7hKL0i5tfutiAmTVPiLUcgu5TAiboy+Y8Xn4iM4NfG7L6kJ9Hzk+LJP3cvvvP2kl7dxGYIrNxiMdsRLryxiHCLvJgJAU8WQITzA9j53vLYCGebZh7hFzqeua5f9qgA+afuRSkrqK/7nzrYyD+UZGtwbKJiNX2czcSYjKDy0umDcub6d00JeUIX1LiJeDjqFxbKzz/HVicjKJIkK4vJvw3OXsu5yv7fF/z3N4TICGplLPVxz0Jmx6JcK85IuP32EuYahCqaTFlhqnNnDfHryCySpJt2tDVoa7m8b3cg77KCY820HeHCG4sId8wfS0HAjQKIcNM/WbG6QYoRfuP3E9pVa+TMzVB3exeJcjmcq3qpc/ltzrXwknw60R+daSc/fOfpVUlUbSkd4StU4kT4tnL5z8OP3R+mr7WzmyGX0/sNzJzDLcF/3ETEx9BzRLkcnreKPs2Qm05v/+562VAXs1dEj7HXtsn+cfExGUHFx5B/6V1EkuSxnSGfnlzIbpjDE0yEn92//LuBed8NzDu2M0gZNjGq7WosItzhLsCCEHCXACIcEU4LjOmXXXp0TdpwdHFmCp1Af+lddGwnfagq1k9dmfzBZT9NpimemQjPz6DvdBvYt1xGUFseRXh8jKmMM2uPiqAyk+k6v+5/6lBzMFMVQTyK8C1EXAx9yV9BUfEqek6tGJelT+iCbh15mlnRge3BkyL8BdmPF5+QEdQbO0KYe+CP7Qy6a+muN3ubnBhH7muQVa2V56SRdWXyH87NPqGbuBXRrsYiwu2VR3kIuF0AES5aRLF9KcWj8Asdz1zTLynXUmdff4ZpyLcDT4p4Ij1vFfXTpcdbNk86M8+eSL/99pK8R0eu2yvpo3Cxnmdje6Rhg/zXkVnxvx/c//cF/1dfCDnYKHv50U1nq5LoQ2fnT6SrosjxYf/6sokH2I68PCnCd9YQv12ZGRtNfvbuPKaBfXvFOZHONpOZ2FMvGx/2Z+91F95YRDhPEr9CwPMFEOGIcFqgqzn4y9Pzbx5eyhwlR4RTv12ZKdbtbKkJ9E3aXb8fB7N/FcztbKf3BF7qpA/BZQR16NFmsAXEmmBONbP3xhuOLr74esDnpxYwF903FtHn852/na2ymD6avz88c3zYf3zY/5eRWb+OzBof9s9MppvG3M52ek9ge+3EuQ3DsaWi3M7GU9paTjeHvUFdeGMR4TxJ/AoBzxdAhCPCaQHmobLRronnu2pLCfOHylSqmHODe072tCoUYcJH9so46osz84+8PHEem7fgzcNLH476rc6ZuCn9k94F5g+VHdE3DV98NSV5JW9ZG78mJ5DMjWNMmbYtxPiwf9Tvd4l3bAt5OOq3+/mJUwLHdoaYP1Sm1aqvXunQtVfbWAvvI2UYlZFs+jm7f/mNw0szkinmO16Yh8r+fn5uRDgNvjKW+mVkFu+hMseEuS2VEZS+JfiHc7NlxMTFCCGNZRpiLcId8OfJ4FcIQMBFAohwH4rwlbFUagL983DUr702JDWBSohlrzqTt448/f7bSwrVVEm+/Ksz88zvZSsrzTca9EaDXq1OETgcmevNo10B+Rkk+8P9VrLyQvLXkVktm2WZydThFgtf7RIdHc2sdOvWMoErpUjqs3fnjemXrdeSOWlky2bZT5ce72g0XdePj6EfkT/eHpidRjK3vJnfy7ZLV2M06G/dOChwpebFel4J5F4LlxHUge3B35+ds2m1PC+dvPrmUvOvdnFAWEZQZ/cv79sbuKGQfgS/rZa4PzyTPdBn7p6bsrHMxluMcAf8zSkwBwIQcJEAItyHIvz220u4X8P5cNTvmt70XWmx0eTAvuX/uPjY38/PtfgFq0plxI1rnXdudoWHKwUOR+YcNW+le7dOuiJeX0Z/Z9z94ZkfvvO0xS9Y7e5uMRr0Wq1a4EplBJUST/bqAr8dnDs+7P/R8cXN9FeosjsrdI/nraJuHXl6fNj/izPzdzxnul+dXYUmP9No0J/saWXn2DtxvJ0f4SRJvr495LuBeeND/kMHLHzBqgPC9AF9HHVCF/Tde/OYxm43+77YKRvLNM1ihMsIygF/e61QHgIQcEwAEe6dEU5SJEmRvNxybIiwS0VGRhkN+o799eyc6ZkYOKO7dGEfIRe/p2xsf0lJntGgr6woslFG9I/cJcw0xFqEu8VfdFtUCAGvFECEix8Mbr8j3UVvKluzJtto0Odkp03nX4IyQvnBnTe2NayfzpXKCGpna9XYaGdoaPh0rtctwrbfVOYu/+lkx7ogIF0BRLi3RXj6qiDmxVMW31TmzEhtaak40/eKMzU4sGxhkfrOza7o6CgHlnVmkd7e1va2zc7U4MCybhFm31Sm0QRExUy6xiEjKHf5O6CHRSDggwKIcG+LcB8cxGgyBCAAAd8UQIQjwsUX8M2/JbQaAhCAwDQLIMLFDzD3Xguf5gGE1UEAAhCAgLsEEOGIcPEF3DWasV4IQAACPiWACBc/wHAU7lN/QmgsBCAAAXcJIMIR4eILuGs0Y70QgAAEfEoAES5+gLn3KPzu2Ayrz4UrFEW361e9ujqmKLHodn3cJjue8E7ekVd0uz5sZXR2z/q8c5Ui/pFk96zPP18pe7Rt6ftWC6+ZaUV8RfrEtiWI9uCZ4411Qth2w200Nro4Ma1NY2Nxh4Vt1El/5ERjbQsfP2wawwPHp+l/1BSNFe+tu1gRBEQUmKY/D3elmlvW65aVsmPi7tiM6+dmMI+Gx6j4j/lqx2rT2jSR2SuKbter1iaxS005kdiQXXS7nopSqg+X5ry7YcrywguoD5fmnt5IP4I8VpvWaiuKeHVGMa0oSU5qyCm6XU9GiPY1LM401mFhXut4v9pobFJzju2dKoeFedtg/qvDjbUtnJAQwgzgb4wzEOHm7JgDAVYAEe6FR+E2/usVXNqc1JwTnqIqul0fnb+CHQdTTiRUZRTdrpeRVMbra7KOPjtleeEFVnUUZ3fTX76mGdqc3JgnfMHw5Jii2/VR2oSVmzPpbRPvG1idaazDwrYbbqOxU0a4w8K2N0lGUA43VqDw3TFEuPj/oKbsVhSQkAAiXPy/ELcfhduI8LyBipXPZyviIotu10dkxlkeqSRFqSJi1yUnbc9lC8SvTy28tkVGUKl7CtVvlLDznZ9I26VVv0lXmD9YkVCfJbxCShVBt0IdF7chTXu1RviCU5Z0prGChO0/K2ujsVNGuMPCU0I53FiBwojwKbsABXxcABHuWxEes3plWFI0QSniNqSREZNe+x2ZFZ919Nm89yq017doRqtzT5ZnHlzLHtoq4iJVJckygorIjIvMjRfxz0b5e4UxqxPDkqJ5NSc10GeJtde3ZHevj8yatF6CnGgFu228ZR3+la3QYmNVa5Oy3y3XXt+SO7ApdiP/fgIbwg5vj4ygbDSWG+EhBJm2t0gzWq3MMu2f2RZ2ZqtsNDY6PyH72PrCa1sKr23J6nk2riw1hPOyONvC7CYhwlkKTEDAogAi3Lci3OIgkBFUaGK09moNE9LyqPDc/o1xm9KtFZ62+SmtBdqR6rhNaZFZ8Wm7CrVXa0JXRE7b2i2uSLUuWXuzNml7boQ6bmWdWjO2hUGzWHh6ZnIjPKW1oPDaFnH3sRxohSI2UjtWm6rTKjNiI7PiE7ZkpncUcyNcYJ2IcIFQKOazAohwRDgtkPpSPnNPGfOXkNiQXTA03S/54P0RKmIji27WsbfNhxBk7qmNyTvsuFjOq1CUX3MHNnFvm09r02T3TPdb1HgNYSM8sTFHO1YbpU3gFZj+X6Pz6fslo7LtuNnC4kYiwi2yYCYEWAFEOCKcFsjoWqt+q5QdFvEV6UW36+Vhk860s59Oz0TchjT6PvNoJbu61PYC9THTRrLzp22CuYcgtjSFXaOqJLnoZh17uYGdP50TTIQnbMksHKuNLk6czlVbW5c8LCzvbEXBpc2JjTnKjFhrxaacjwifkggFfFwAEY4If3QUvkubd66SPdWZ1JxTMOLmo/CVdeqi2/XaqzXsT+FYbc4pMZ9ns/ePX5kRR2/S9S3sJmmvb6H3MyLdua/DRDhzoUGZ7nhe2qthuzwZEZ7YkJ3ds77oZl1e38Yoex5/YGtGhLMUmICARQFEOCKcFlBmxBWO1SY2ZMsUCmV6bP6lqqTmHIsjZtpmxm2izwSEp6lCE6PZH0WcO6+FKxLoO/njK1ex28NMsLs+04bDXdHEiXSSUh8u1VysUiS4k4i7Ycw0pYpQv1mivVrjwIP7iHBzT8yBAFcAEY4InxBIeUVTcKlKM1qdf+45+nEyOx+z1mrVV6906NqrucPLmWlFQmThrTq7vn+GtzqVKubc4J6TPa0KhWhHyfmDFXZ9/wxvk2QEdUTfNHzx1ZTkleYfOTaHvRYuV4blntqY17fR3rMCjdvKr40eKC+343t1ptxU7m4Nfbnhdr0yw3ST/JSLMwWsRbgrNljgJqEYBDxKABGOCKcFQldMHF9GZMdFZsWH2f9lpbt0NUaD/taNgyKO71SdVjO0ecWmdGVmXGxpSqa+JDw5Rnj9ZaX5RoPeaNCr1aar18IXt1gyriyVvSM9umhl2r6iuA3858osLsjMjI6OZjZp69YyG8Xs+oiNcBn9sGCk5mKV+lgpQSmEVzLYrzMa9Ef0TcIXsV0yqSGHeZBMmR4bU5SYe7K84MJzMoUdm8TUby3CRd9g283BpxDwWAFEOCL8kQBJZewv1lypLrpdz/xk96y366y1Jj/TaNCf7GkVc6zLqaQXcvIHKzRjW/LOVSZtzyVCQ4XXr1RG3LjWeedmV3i46Z444YtbK6kqSc49ST8XrhnanLa3yN7n3Lq7W4wGvVartla/vfO5Ec5cE9FerUl/zY6HuJq3bzQa9Dt2bLJ31dbKU6qIVJ02/9xzhTdqNUObM15fE5bIf+Lf2rLc+dYiXPQN5q4U0xCQkAAi3DsjnKRIkiJlnC/TsGNQyillRmze2YqMrnXClyopyTMa9JUVRcIXcXXJyMgoo0Hfsb/e1Suyq/6BM7pLF/YRdl6nsGsV9hbWtVd/+P6biSudfQbM3vVOWd5ahHvsBk/ZIhSAgLgCiHAvjHCrbyqz/r2e6a8Vx6ye9DxS6p5Cu15nsrO1amy0MzRUtHeNOD/Q16zJNhr0Odl2nOh2fqW2a1BGKD+488a2Bjc/Ss7byL5TbUePNPNmuvHXKd9U5mkb7EYrrNrHBRDh3hbh6auCmLc8aTQB5m8qszbcMw6tzTlRHqVNCEuOVmbGJdRmFl7bwv2OdGsLsvN7e1vb29z8HBq7McxES0vFmb5XeDPd+2thkfrOza7oaNHei+p8c0LDwg23D61bZ/o+fOfrdLIG9k1lGk1AYlIwrzYP3GDeFuJXCEybACLc2yLcsaFDqSLSO4oLLm2mL14Ob87qeXbFcxncm4odqxZLQQACEICA6wQQ4Yhw8QVcN15RMwQgAAEIsAKIcPEDzL0vG2W7FhMQgAAEIODdAohw8SPcu0cMWgcBCEAAAh4igAhHhEMAAhCAAAQkKYAIl2S3ecgOIDYDAhCAAATcKIAId1WEp6+rPfDVf5ifl0fvu7GPsWoIQAACEPBKAUS4qyJcoVTFZxXHZxVXdJxFhHvlHw8aBQEIQMC9AohwV0U4269rX3obEc5qYAICEIAABMQSQIQjwl0uINZgRT0QgAAEIMAVQIS7PMBwFM4dcJiGAAQgAAGxBBDhiHCXC4g1WFEPBCAAAQhwBRDhLg8wHIVzBxymIQABCEBALAFEOCLc5QJiDVbUAwEIQAACXAFEuMsDDEfh3AGHaQhAAAIQEEsAEY4Id7mAWIMV9UAAAhCAAFcAEe7yALN2FK7Vqq9e6dC1V3P7A9MQgAAEIAABgQKIcLdF+C5djdGgv3XjoMCuQjEIQAACEIAAVwAR7rYI1+RnGg36kz2t3P7ANAQgAAEIQECgACLcbRFeUpJnNOgrK4oEdhWKQQACEIAABLgCiHBXRfiUbyrb2Vo1NtoZGhrO7Q9MQwACEIAABAQKIMJdFeHsm8ris4pj0/LN+6O3t7W9bbP5fMyBAAQgAAEICBFAhLsqwoXoowwEIAABCEDAYQFEOCIcAhCAAAQgIEkBRLgku83hXTYsCAEIQAACXiOACEeEQwACEIAABCQpgAiXZLd5zS4kGgIBCEAAAg4LIMIR4RCAAAQgAAFJCiDCXdhtHV/868BX/2F+ohPVDu9nYUEIQAACEICAuQAi3LURvrq5Kz6rOD6rWE4pzfUxBwIQgAAEIOCwACLctRGu3rjd4b7BghCAAAQgAAEbAohwRLgLBWyMPHwEAQhAAAJOCiDCXRhgHV/8C0fhTg5QLA4BCEAAAtYEEOGIcBcKWBt2mA8BCEAAAs4LIMJdGGA4Cnd+gKIGCEAAAhCwJoAIR4S7UMDasMN8CEAAAhBwXgAR7sIAw1G48wMUNUAAAhCAgDUBRDgi3IUC1oYd5kMAAhCAgPMCiHAXBhiOwp0foKgBAhCAAASsCSDCEeEuFLA27DAfAhCAAAScF0CEuzDAcBTu/ABFDRCAAAQgYE0AEe7iCK9oIqgwggqz1gGYDwEIQAACEHBMABHu2gjHm8ocG5dYCgIQgAAEphRAhLswwuPVq5nXlOFNZVMORBSAAAQgAAF7BRDhLoxwezsD5SEAAQhAAALCBRDhiHAIQAACEICAJAUQ4ZLsNuH7aCgJAQhAAALeKoAIFz/CY+MSvHW4oF0QgAAEIOA5AohwRLj4Ap4zvrElEIAABLxYABEufoDhKNyL/2DQNAhAAAKeI4AI97YIvzs249//nPh5qekPnjPUsCW2BaoqFrAd99On0/SHaXuT8CkEIODhAtP0n8JdB6ZuWa9bVsqOs7tjM66fm6HRBGg0ATEqGTufIMgdVfKPji8eH/b/uv8pfUuwMkyc3ZfVOfKHo37cn9O7g9j1yggqLobs1QV+9968H87NHnx1eUT4pPXa/pRbj/DpyAjycEvwV2fmjQ/7f3R8cW0pwV02PYns3/vMD+dmjw/533xraWkByf3UmelvB+dyHR6O+t1+ewlbYWYKOXQg4N75uffOzz27f3li3KT1RkQSTK8NHJ+BCGfRMAEBCNgQQIRPihMbUsI/cnuEDxy30K3rteRfTy3YWi7PSiVrS4nvz845/9ozwhtloyQT4XnpZHLCxE9UhElVGUZ9dHzxSNeyoiyyIIN8sXJSmtr+1MZKbX90Tb/kw+6nK1bLtVnkoebgh6N+GwpNeXnzraVHW4PW5pGaTPLUruUPLvtpMk2f2q7Z9qerkih1qpz9MXY/fWxnCLNIQiz5w7nZFzqeKcyitFnklUMBn707T6EwQbE1v/EaItwCC+uDCQhAgBWw8L+e/UzECXelmlvW65aVsp11d2yGxQiXERQ3MLaW04fO0ZEi/K9kIlwVZTkFX6kjPj+9IFThyKdso+ydSEskucf677+9ZOhAAFsJ10FGUJ+fWnC4JZj9VKyJrFTy4ahfVupEw3c/L7t3fm546AR4XAz568is+jK5+eoQ4eYmmAMBCFgUQISLkGE8WY+NcO521pSQ94dnhoVaTlZuySmnbUf4Rz2L92w1nc/n1Wb7U15hh3/t2xtoOLrY2uKf9C7o2DZxrGytjAPzj7cHXtObzqL36gI/ODZpGz7pXXC0ddIVB2YtiHAHtLEIBHxTABHuixGenUb+pXeRrs5qstr1x2AjwiPCqd+uzKwpIY+3B/79/Nxv+p/saAwhyYn9Btuf2rUNtgt/+M7Tp/cEmpdRhlF76mVfnJkfrxJhV4ZbvyqKvD/kX7XWdJB96MXgL/vmc8qQf+5ePLBvOWfOxFBEhJubYA4EIGBRABHuWxGelkhHy8NRv77dgQpKnLYzEX52//LvBuZ9N2mctOkAABy/SURBVDDv2M4g9ka59CT6ZPJfTy3obJJps8iGDfJ7F+awh7y2P7U4Xh2Yqcmkt6Gccy2cqeSELujXkVnfvTevJN8UtA7Ub3GR3c/LvuybL5eb9gw0meRvV2a214aEKsi4GPKELujBZb/j7RZ2LBDhFkkxEwIQMBdAhIsTY1xZTz6RHqog0xLJ0gLy1pGnbx15WpQUT4wj9zXIqtbKc9LIujL5D+dmn9BNnB/OTafjc3e96XD/tRdkP5ybLSPobLP9KZfU4elQBfmn7kUWb9xboSJz0si2GuL+kP9zxWKmOEVSX/c/xW01s/2NFfQezG9XZv548Yn22pCv+5/qaLRwAh8R7nB3Y0EI+JoAIty3Ipwd38kJdLhWrzMdJrIfOTmxp142PuxPkTRsWiK9ljW5prVUr6PnxDy6jc72p05uxqPFyb69gX89tYB7h7x5tSd0QR/3LDSf7/Cc+jL5+LC/KtrUarYqBUUlJ5ChCjI7jXaw+DwbIpzlwgQEIGBbABHuoxEuI6gHl/3aaiY94mV7rAj8lLnXnblBXUHRa6nj3HfdsIG+E565Qd32pwJXZ6PYoReDvx14MjVhii7e/bzsHxcfs1GPvR8Zji5mz0NYXJYiqWv6JR/3LGR2dHhlEOE8EPwKAQhYE0CET/H/3RqcjfmeeSI9KoLkPveVn0EfBfKuEKtUMecG95zsaVUowmw0kPcRe3saM1/fEsyeKpcR1HX9sl6d6Yrv8fbAD995mq3B9qdMsSP6puGLr6Ykr2SXEjKxd6vsu4F5mSkWDoV5oX7p9QDuF7AwlWu16qtXOnTt1ULWxS1TlEXD5q2yOq4yU8ibby39/uycvHQL2yYjKGsR7ljvcLcN0xCAgJcJIMKt/qt1uKc9M8JP7lr+Zd/8ulIiO43cvFb++akFY/plxKNr0mxLy0rzjQa90aBXq1PYmVNOnN2/vG9v4IZCMm8V1VZL3B+mb9pil9pQSP4yMmtHlTwzhf56uPvDMyvXmKLL9qcygoqOjmY2aevWMrbOKSfoK9zDM59/Vp6fQbI/zK5GehL54LLfOzuDitSUJpP+ErdfR2at15o2ial8l67GaNDfunFwynXxCry3b/mtI0t5M5lf12vJka5lDy779e0NTE7gr5FdxFqEO9Y7bLWYgAAEvE8AEe4rEa4MozoaQz57d9794Zlf9s0/1BzMfs0IO6yVyogb1zrv3OwKD1eyM6ecWBlHndAFfffexLeZbp/8/WsygmrYIP9L76L7wzM/7llYU8KPLtufygiqu7vFaNBrteopt4QtYDi2lPdFpz8PP8beH742j7zcueze+bk/Xnzimn6JxTvSNfmZRoP+ZE8rW6fAieZKokzDbyOzbMVq+c4agve9qubVWotwx3rHvH7MgQAEvEYAEe6dEU5SJEmRzI3fwgdrZGSU0aDv2F8vfJFpKDlwRnfpwj5CLn5P2dj4kpI8o0FfWVFko4yLPrIW4Z7ZOy5CQLUQgIAQAUS4+MHg9hPp7Auv7H1T2Zo12UaDPic7TcjQmZ4yygjlB3fe2NawfnpWx65lZ2vV2GhnaGg4O8fVE1O+qcwDe8fVJqgfAhCwLYAI97YIT18VxLzwivemMtvjgPm0paXiTN8rQkpOW5nCIvWdm13R0VHTtkZmRb29re1tm6dzpeybyjSaAHWWhW9t88DemU4frAsCEDAXQIR7W4Sb9zHmQAACEICAVwogwhHh4gt45Z8KGgUBCEDA0wQQ4eIHmHuvhXvaCMP2QAACEICAiwQQ4Yhw8QVcNFhRLQQgAAEIcAUQ4eIHGI7CuSMM0xCAAAQg4CIBRDgiXHwBFw1WVAsBCEAAAlwBRLj4Aebeo/C7YzMcfi6cOzIw7ZjAN0aTf0PdbMcqwVIQgAAEhAggwr0wwq+fm8E8Gh6jMr2omyDIl6tln5xYMD7s/1998/Y3hPBeTyJkuFgrQ5HUqy+EfHFm/o8Xn7h5eGl2muVvGLW2uLX5URHUsZ2Pvrp1yP/G4aXcl5bKCCozhRw6EHDv/Nx75+ee3b98yi8utbYWa/P3N4SsUPEbsvt5Ge+rW/+4adLb3jIzljP4/+9/ZiDCrdliPgQgIIoAItwLI3zguIVuffWFkO/PzvnjJiI/g9xeSfx06fGDjaaAd3IwndAFffbuvIrV8uw0sqmSYF4H7mSdMoJ+I+f7by8pVNPvHT/0YvD4sH9m8kR/JcSSP5ybfaHjmcIsSptFXjkU8Nm78xQK0XqzJF/+y8islbH8Cnc/L7vbuyg5gWR/mBenmjcWEW5ugjkQgIC4Ahb+14u7AqY2d51bdst63bJSttfujs2wGOER4VR6kumY8mBTyKOXZJvmsDXYO6HNIn8dmWXxtZ72VsUtn5pAPRz1K86WszP/q2/evoaJ3Y7dz8vunZ/LvqklLobehnrOi8nZpRybGHztmcHXnjFfdvfzso96FpvPN5+DCDc3wRwIQEBcAUQ4/zDLeV/PjHBeu5oqiYejfmwE8j6169cjLwdffSPArkWEFM5IpiO8UG3qoK/7n2qrnThr3asL/ODYpCj9pHfB0dYgITVPWSYxjn5BammBhf0bRPiUeigAAQhMmwAi3JQQYqFLIsLf2BHyTf+TojT5g2OLDzaFtNeGfNk3/96FOf17n4mNthB+9q+LNBxb+lHP4vwMujZdnezTkwujIyf669CLwV/2zefUSf65e/HAPgtfLc4pI7SvO5vos+UyggxVkLzr+ohwBzyxCAQg4CIBRLjQf+vCO8DzIzwinPp2cG5nkzjXwr/pf/Lz0wvOv/bM2jyyvJD8qGfxzcNLhXPZKKmKIt9/e8nDUb+v+5/6pv/JhFjTnoEmk/ztysz22pBQBRkXQ57QBT247He8PdBGbQI/ClWQ35+d83I1jVOYRY0P+3MX3P287Lv35o12Bfz9/Ny/nlqws2bSvWzckjiRztXANAQg4AoBRLgvRnh3W9CXffMjI0yJ6MzYundhzlDXMvbd5CX58oejfryDV4fqJw+3BBuOLV2dI3+ljvh24MlPTy5Mijdtc2OF/N6FOb9dmfnjxSfaa0O+7n+qozHEoRVNGgMNG+Q/XXo86hHOei3Ji/A1ueTuellpAZmXTk88HPVr2GC6Ws9dOyKcq4FpCEDAFQKI8En/vkUh9vCj8KZK4v6QvybTlIVOtvrr/qf2bjUd0KuiyYejflVrLQeb8HU9/6x8fNg//vfHumKjyY97Fg4dnHTRXUFRyQkTp7sfjvpZvHotfI1MScOxpezRfPU6foTzartyKGD0zUmbxBZAhLMUmIAABFwkgAj3rQivXENnUmWxaPktI6gx/bLuNtN9ZMkJdISXa52FPaEL+nP3pBvWdtfL7g9NOq3N/FVQJP342cc9CynS2ZVGRtAb/+Cy3/iw//iw/8/Djz0cpaebKi2fMO95JdDaDeqIcBf9z0K1EIAAK4AId/afPkvJTnjsUXiZhvzx4hO1pZbTSEZQKlXMucE9J3taFYowtjlTTuxvCPn81AKCmNgtqC+TP7jsx3s0vHFb+bXRA+XlmilrYwscag7+7r153FR+Z2fQl6e5t7DRfZeZQt58a+n3Z+fkpfP3SxxoDkGQGckU+6Ork90fnpmRTDHn1WUENfn7cMgPu5+2+OyZjKCsRfgRfdPwxVdTkleyLcUEBCAAAccEEOG+EuGrc+TjQ/4HG2X5GST7ExUxqfllpflGg95o0KvVKcLH0woVee/CnOPtgepU+abV8m/6n9S3BPMWH+zXGQ36I/om3nwbv65Kon68+ET/3mc0mWRmMrWrTvbLyKwXOUfD67XkSNeyB5f9+vYGJifw81tGUI41h7tJW8vpk/nsHGUY9dm78zoaQ9blkYVZ1PH2wAeX/QqzJhmyhS1GeHR0NCO8dWsZWxITEIAABBwTQIRb/v/rmCazlGcehR9qDuZ9M+jDUT/eV5YqlRE3rnXeudkVHq60S0CbRR8K3x/y/7r/qf0NIXI5P1Cbt280GvQ7dmyyq9q8VdSlzuX3LswZH/L/4NjireWTrq9XrJbvrCFsfK+qw81hN5K5Hs/+ytyjfrlz2T8uPvaPi49d1y9bl8dvKVvYYoTLCKq7u8Vo0Gu1arYkJiAAAQg4JoAI984IJymSpEj2LnGBgyMyMspo0HfsrxdYXngxXXv1h++/mbhyhfBFnC/puuYI2TZrET5wRnfpwj5CLv7AE7JVKAMBCHiTACJc/P+kbj8Kd/hNZWvWZBsN+pzsNNGHeN+ptqNHmkWv1naFrmuOjfXaflOZMkL5wZ03tjWst1EDPoIABCAgUAAR7m0Rnr4qiHlTlkYTwH1TmZAB0dJScabvFSEl7SoTGhZuuH1o3bpcu5ZyvrCLmmN7w9g3lWk0AVExpmftmKUKi9R3bnZFR0fZrgSfQgACEBAigAj3tggX0usoAwEIQAACXiCACEeEiy/gBX8YaAIEIAABzxdAhIsfYO69Fu75Yw5bCAEIQAACogggwhHh4guIMjRRCQQgAAEI2BZAhIsfYDgKtz3m8CkEIAABCIgigAhHhIsvIMrQRCUQgAAEIGBbABEufoC59yj87tgMh58Ltz1W8KkbBaoqFrDd+tOn0/Rn68b2YtUQgIAQgWn6X+CuVHPLet2yUraz747NuH5uBvNouMXnwksLyC1mbzqJjCAPvRj8Zd/8+8MzP+ldsKNq0leZspXvbwhZ8fvbP9mZTk7ExZC9usDv3pv3w7nZg68ujwif2KnKSKbMvxG2s2niSeumSsL80/JCq193Knwj5XLylTris3fnjQ/73+1d1FhhmUJ4hUxJgiBfrpZ9cmLB+LD/f/XN298Qwn1jypT+EZEE06cDx2cgwu3FR3kIeKsAItwLj8IHjtvq1huHlx7bGcIb0K9vDxl9M2BjkTw7jWReKNJazX+hWUm+/JeRWStjxRRThlEfHV880rWsKIssyCC5bzFRUJQ6Vc7+FKqp8WF/9jVrURGTPm2seLRtcSJsW2eT7N75uX/cSGSlkn/cRIwP+/9xI5+Cpyfk11dfCPn+7Jw/biLyM8jtlcRPlx4/2Gj64hch/sxa3ngNES5CLwvpMpSBgOcL2PpfL+LWu+vA1C3rdctK2c66OzbDRoRnp9Hvw85J4x+tkiTJfTfJCV3Qn7oXsXUyE4OvPWPtxZq8ksJ/faWO+Pz0glAFf3vMa9hRJf924Enuu0e5Zc7uX352/3LuHMemFQrqp0uP737eFK5HXg7+7N15jtXGXSoinEpPMjXzYFPIPy4+xn6JvRB/pjZEOFcV0xDwcQFEuPh79J4c4d1tQTcPL51y0B9t5RdLjCN/GZlVWmAKoSkrEVLgo57Fe7aa8tL6IuSnJxe++gL/5AFTPime3jYbLw2zXi2/91Pi6V2cTatNJ89rSug5cTEiN5y5EBAeyt8AZlPN/dkmIMJZCkxAAAKIcMv/Q50ZGR4b4VER1PiQf92jC+Ep8WRstIVYIkmyspj82+DstZNfo9nZJLvbu0hGkKEKMtvsIN4xrohw6rcrM2tKyOPtgX8/P/eb/ic7GiddIWar3Vgk/3n4sXgrOXqoOfij44vZws5MREaQv47M2sZ5q2nVWvnDUb/MZJHHyRs7Qr7pf9J8U635syUR4SwFJiAAAUS4yP+aZQTlsRHetoX4bmCegqKbPNK1TFfHP/zdVk4n5f3hmW01k67+hirI78/OebmaLl+YRV+TFuUvJz2JPsD966kFnU0ybRbZsEF+78Kcjm0WDrVHuwJO7wm0uNLwUOre+bli3XQmI6ihAwGfnFiwKomSy8lyLfV1/1MPR/1WinGVnd3+iHDq28G57K157Hxr/mwBGUEhwrkamIaAjwsgwn0lwgmC/OupBa9vnwjIW0eWmkd4VASVmUxtKSW+7n/qUHMw+7fRsEH+06XHoyLoo/b1WlKsCM9NpyN8d71pT+K1F2Q/nJvNXiFmNkCdSh8HF2ZZ7qkdVfJ75+eGhVo4o8Buv10T8Sry6ptLH476/XZl5u23l3Q2yX4ZmSXkar3wtXS3BX3ZNz/ykSd3KWv+3DKIcK4GpiHg4wKIcMvB4Myw8Myj8E2r5b+OzEqKn4i6j3sWmkc42+qGDXTh+N+fHzMcW3q8feIguHqdaBGelkhH+JpcU/pWr6PnxERO6pTj7YEfHLN2npy827vo0IumvQ22CU5OqKJJ5vG5s/uXC7l7QPjqmiqJ+0P+mkxTq82X5flzCyDCuRqYhoCPCyDCJ6WFKKPBMyP8zR0hD0f9xof9mZ/frsx8cNnvqzOW77VenUMf+OatonEiI+hYfXB5Ytmfhx9j6mmqnHSy3QE6BUU9uOxXV2a6d6xhA71e7iGvKoq8P+TfsMFUhruiDYX0pevUBPE7kVlL+aP6mbsHuOt1eLpyDb0DVFlsK79lBMX1560LEc4Dwa8Q8GUBRLj4//09M8Jjo8mMZIr9+erMvEMvBrPhl5xAcr9ppG0L/Tw0c+acICYtqKuT3R+emZFMMZ+yfzxarfrqlQ5dezU7R8jEdf2yXp3pIvfx9sAP33mau+Ceetn3Z+dwQ5376ZVDARdfD+DO4U6rVDHnBvec7GlVKMK484VMKxTUy9Wy8WF/9vQDd6nGbeXXRg+Ul2u4M6ecLtOQP158gn20nVvehj+3mI1r4Y758yrHrxCAgLQEEOG+EuG8cfn5qQXsiXSKpD57d96Yftl6LZmTRrZslv106fGORgu3lckIamu53OK18F26GqNBf+vGQd6KbP+6oZB+HmxHlTwzhdxRJb8/PLNyjekIlSLpu8kObLd8njwzhT49sF5rKs9bV1lpvtGgNxr0anUK7yMbv4aFkm/uCPl24MkvT89v3GT5TMNgv85o0B/RN9moh/fR6hz5+JD/wUZZfgbJ/kRF0MPPLn9rR+GO+fM2Er9CAALSEkCE+2iE/5UT4TKCSomnv+X028G548P+Hx1f3EyfJLccjc8/aznCNfmZRoP+ZE+rvX8ADRvkf+lddH945sc9C2tKJq00MoLc3xBi7W7wjGTq0X7GpEW4a1cqI25c67xzsys8XMmdP9U0HeHlhZNOS/AWad6+0WjQ79ixiTffxq+HmoPNvxGWvQ9AuL+1CHfY38Y24yMIQMDDBRDh3hnhJEWSFGkthl0xKEtK8owGfWVFkSsqd6zOyMgoo0Hfsb/escVtLKVrr/7w/TcTV66wUcZFH1mLcA/0d5EAqoUABFgBRLgXRjj7SquXmv7A9rSrJ3a2Vo2NdoaGhrt6RcLrX7Mm22jQ52SnCV9EYMm+U21HjzQLLCxKsSnfVOaB/qI0HJVAAAI2BBDh3hbh6auCmFdaaTQBFt9UZmM0OPNRb29re9tmZ2oQfdmWloozfa+IXm1oWLjh9qF163JFr9lGheybyjSaAHWWhW+D90B/G83BRxCAgCgCiHBvi3BRhgUqgQAEIAABzxdAhCPCxRfw/HGPLYQABCDgBQKIcPEDzL3PhXvBoEQTIAABCEBAiAAiXPwIF+KOMhCAAAQgAAEnBRDhiHAIQAACEICAJAUQ4ZLsNid33LA4BCAAAQh4gQAi3FURnr6u9sBX/2F+Xh697wVjBU2AAAQgAAGPEkCEuyrCFUpVfFZxfFZxRcdZRLhHDXpsDAQgAAHvEECEuyrC2fGx9qW3EeGsBiYgAAEIQEAsAUQ4ItzlAmINVtQDAQhAAAJcAUS4ywMMR+HcAYdpCEAAAhAQSwARjgh3uYBYgxX1QAACEIAAVwAR7vIAw1E4d8BhGgIQgAAExBJAhCPCXS4g1mBFPRCAAAQgwBVAhLs8wHAUzh1wmIYABCAAAbEEEOGIcJcLiDVYUQ8EIAABCHAFEOEuDzBrR+FarfrqlQ5dezW3PzANAQhAAAIQECiACHdbhO/S1RgN+ls3DgrsKhSDAAQgAAEIcAUQ4W6LcE1+ptGgP9nTyu0PTEMAAhCAAAQECiDC3RbhJSV5RoO+sqJIYFehGAQgAAEIQIArgAh3VYRP+aayna1VY6OdoaHh3P7ANAQgAAEIQECgACLcVRHOvqksPqs4Ni3fvD96e1vb2zabz8ccCEAAAhCAgBABRLirIlyIPspAAAIQgAAEHBZAhCPCIQABCEAAApIUQIRLstsc3mXDghCAAAQg4DUCXh7hXtNPaAgEIAABCECAJ4AIx1E4BCAAAQhAQJICiHBJdhtvRwy/QgACEICADwr4RIR/Envj/1Q/Mz/1UTU+2M1oMgQgAAEIeJ+AT0R4RmhGgTK/QJn/v9E/IsK9bxCjRRCAAAR8U8AnIpztWkQ4S4EJCEAAAhCQugAiHNfCIQABCEAAApIUQIRLstukvueI7YcABCAAAecFEOGIcAhAAAIQgIAkBRDhkuw25/fdUAMEIAABCEhdABGOCIcABCAAAQhIUgARLsluk/qeI7YfAhCAAAScF0CEI8IhAAEIQAACkhRAhNPd1rit/NrogfJyjfP7RKgBAhCAAAQgMD0CiHA6wgf7dUaD/oi+aXrQsRYIQAACEICA8wKIcDrCm7dvNBr0O3Zsch4UNUAAAhCAAASmRwARTke4rr36w/ffTFy5YnrQsRYIQAACEICA8wI+EeFTvqms71Tb0SPNzmuiBghAAAIQgMC0CfhEhLNvKitQ5kdRMTzc0LBww+1D69bl8ubjVwhAAAIQgIAnC/hEhHtyB2DbIAABCEAAAo4JIMLpa+H4gQAEIAABCEhOABGO/IYABCAAAQhIUmCaIlxyuzbYYAhAAAIQgICHCyDCJbnn5eGjCpsHAQhAAALTIIAIR4RDAAIQgAAEJCkwrREeGi7/9z9nsD+xcbJp2EnBKiAAAQhAAAJeKTCtES4jSI0mQKMJeKnpD//+5wxEuFcOKTQKAhCAAASmR2CaI3ziTEVpyWJE+PR0MNYCAQhAAALeKoAIl+T1D28djmgXBCAAAQgIF0CEI8IhAAEIQAACkhRAhEuy24Tvo6EkBCAAAQh4qwAiHBEOAQhAAAIQkKQAIlyS3eate5RoFwQgAAEICBdAhCPCIQABCEAAApIUQIRLstuE76OhJAQgAAEIeKuAZ0W4ShVzbnDPyZ5WhSLMW8XRLghAAAIQgIAoAp4V4WWl+UaD3mjQq9UpojQPlUAAAhCAAAS8VcCzIlypjLhxrfPOza7wcKW3iqNdEIAABCAAAVEEPCvCIyOjjAZ9x/56UdqGSiAAAQhAAAJeLDCtET7lm8rWrMk2GvQ52WleLI6mQQACEIAABEQRmNYIZ99UxryvTE6SvDa0tFSc6XuFNxO/QgACEIAABCBgLjDNEY4nuCAAAQhAAAIQEEcAES6Oo/nOEeZAAAIQgAAEXCqACEeEQwACEIAABCQpgAiXZLe5dLcOlUMAAhCAgCQEEOGIcAhAAAIQgIAkBRDhkuw2SeweYiMhAAEIQMClAohwRDgEIAABCEBAkgKIcEl2m0t361A5BCAAAQhIQgARjgiHAAQgAAEISFIAES7JbpPE7iE2EgIQgAAEXCqACEeEQwACEIAABCQpgAiXZLe5dLcOlUMAAhCAgCQEEOGIcAhAAAIQgIAkBRDhkuw2SeweYiMhAAEIQMClAohwRDgEIAABCEBAkgKIcEl2m0t361A5BCAAAQhIQgARjgiHAAQgAAEISFIAES7JbpPE7iE2EgIQgAAEXCqACEeEQwACEIAABCQpgAiXZLe5dLcOlUMAAhCAgCQEEOGIcAhAAAIQgIAkBRDhkuw2SeweYiMhAAEIQMClAohwRDgEIAABCEBAkgKIcEl2m0t361A5BCAAAQhIQgARjgiHAAQgAAEISFIAES7JbpPE7iE2EgIQgAAEXCqACEeEQwACEIAABCQp8P8BYtljUqK4OO4AAAAASUVORK5CYII=;" parent="XhhwrtuDSf7FmkPlDNKx-1" vertex="1">
                    &#xa;
                    <mxGeometry x="251" y="106" width="662" height="705" as="geometry"/>
                    &#xa;
                </mxCell>
                &#xa;
                <mxCell id="XhhwrtuDSf7FmkPlDNKx-12" style="edgeStyle=orthogonalEdgeStyle;rounded=0;orthogonalLoop=1;jettySize=auto;html=1;exitX=1;exitY=0.5;exitDx=0;exitDy=0;strokeColor=#FF3333;" parent="XhhwrtuDSf7FmkPlDNKx-1" source="XhhwrtuDSf7FmkPlDNKx-3" target="XhhwrtuDSf7FmkPlDNKx-13" edge="1">
                    &#xa;
                    <mxGeometry relative="1" as="geometry">
                        &#xa;
                        <mxPoint x="984" y="451" as="targetPoint"/>
                        &#xa;
                    </mxGeometry>
                    &#xa;
                </mxCell>
                &#xa;
                <mxCell id="XhhwrtuDSf7FmkPlDNKx-3" value="" style="rounded=1;whiteSpace=wrap;html=1;fillColor=none;strokeColor=#FF3333;" parent="XhhwrtuDSf7FmkPlDNKx-1" vertex="1">
                    &#xa;
                    <mxGeometry x="291" y="148" width="585" height="240" as="geometry"/>
                    &#xa;
                </mxCell>
                &#xa;
                <mxCell id="XhhwrtuDSf7FmkPlDNKx-16" style="edgeStyle=orthogonalEdgeStyle;rounded=0;orthogonalLoop=1;jettySize=auto;html=1;exitX=1;exitY=0.5;exitDx=0;exitDy=0;entryX=0.5;entryY=1;entryDx=0;entryDy=0;strokeColor=#FF3333;" parent="XhhwrtuDSf7FmkPlDNKx-1" source="XhhwrtuDSf7FmkPlDNKx-4" target="XhhwrtuDSf7FmkPlDNKx-13" edge="1">
                    &#xa;
                    <mxGeometry relative="1" as="geometry"/>
                    &#xa;
                </mxCell>
                &#xa;
                <mxCell id="XhhwrtuDSf7FmkPlDNKx-4" value="" style="rounded=1;whiteSpace=wrap;html=1;fontColor=#333333;fillColor=none;strokeColor=#FF3333;" parent="XhhwrtuDSf7FmkPlDNKx-1" vertex="1">
                    &#xa;
                    <mxGeometry x="289.5" y="525" width="585" height="238" as="geometry"/>
                    &#xa;
                </mxCell>
                &#xa;
                <mxCell id="XhhwrtuDSf7FmkPlDNKx-14" style="edgeStyle=orthogonalEdgeStyle;rounded=0;orthogonalLoop=1;jettySize=auto;html=1;exitX=1;exitY=0.5;exitDx=0;exitDy=0;entryX=-0.008;entryY=0.617;entryDx=0;entryDy=0;entryPerimeter=0;strokeColor=#FF3333;" parent="XhhwrtuDSf7FmkPlDNKx-1" source="XhhwrtuDSf7FmkPlDNKx-5" target="XhhwrtuDSf7FmkPlDNKx-13" edge="1">
                    &#xa;
                    <mxGeometry relative="1" as="geometry"/>
                    &#xa;
                </mxCell>
                &#xa;
                <mxCell id="XhhwrtuDSf7FmkPlDNKx-5" value="" style="rounded=1;whiteSpace=wrap;html=1;fontColor=#333333;fillColor=none;strokeColor=#FF3333;" parent="XhhwrtuDSf7FmkPlDNKx-1" vertex="1">
                    &#xa;
                    <mxGeometry x="291" y="392" width="585" height="129" as="geometry"/>
                    &#xa;
                </mxCell>
                &#xa;
                <mxCell id="XhhwrtuDSf7FmkPlDNKx-7" value="" style="rounded=0;whiteSpace=wrap;html=1;fillColor=none;" parent="XhhwrtuDSf7FmkPlDNKx-1" vertex="1">
                    &#xa;
                    <mxGeometry x="358" y="169" width="458" height="111" as="geometry"/>
                    &#xa;
                </mxCell>
                &#xa;
                <mxCell id="XhhwrtuDSf7FmkPlDNKx-8" value="" style="rounded=0;whiteSpace=wrap;html=1;fillColor=none;" parent="XhhwrtuDSf7FmkPlDNKx-1" vertex="1">
                    &#xa;
                    <mxGeometry x="358" y="283" width="458" height="85" as="geometry"/>
                    &#xa;
                </mxCell>
                &#xa;
                <mxCell id="XhhwrtuDSf7FmkPlDNKx-9" value="" style="rounded=0;whiteSpace=wrap;html=1;fillColor=none;" parent="XhhwrtuDSf7FmkPlDNKx-1" vertex="1">
                    &#xa;
                    <mxGeometry x="358" y="408" width="458" height="96" as="geometry"/>
                    &#xa;
                </mxCell>
                &#xa;
                <mxCell id="XhhwrtuDSf7FmkPlDNKx-10" value="" style="rounded=0;whiteSpace=wrap;html=1;fillColor=none;" parent="XhhwrtuDSf7FmkPlDNKx-1" vertex="1">
                    &#xa;
                    <mxGeometry x="361" y="543" width="458" height="88" as="geometry"/>
                    &#xa;
                </mxCell>
                &#xa;
                <mxCell id="XhhwrtuDSf7FmkPlDNKx-11" value="" style="rounded=0;whiteSpace=wrap;html=1;fillColor=none;" parent="XhhwrtuDSf7FmkPlDNKx-1" vertex="1">
                    &#xa;
                    <mxGeometry x="361" y="635" width="458" height="107" as="geometry"/>
                    &#xa;
                </mxCell>
                &#xa;
                <mxCell id="XhhwrtuDSf7FmkPlDNKx-13" value="&lt;h1&gt;PAGES&lt;/h1&gt;" style="rounded=0;whiteSpace=wrap;html=1;strokeColor=#FF3333;" parent="XhhwrtuDSf7FmkPlDNKx-1" vertex="1">
                    &#xa;
                    <mxGeometry x="1012" y="420" width="120" height="60" as="geometry"/>
                    &#xa;
                </mxCell>
                &#xa;
                <mxCell id="XhhwrtuDSf7FmkPlDNKx-18" style="edgeStyle=orthogonalEdgeStyle;rounded=0;orthogonalLoop=1;jettySize=auto;html=1;exitX=0.5;exitY=0;exitDx=0;exitDy=0;entryX=0;entryY=0.5;entryDx=0;entryDy=0;" parent="XhhwrtuDSf7FmkPlDNKx-1" source="XhhwrtuDSf7FmkPlDNKx-17" target="XhhwrtuDSf7FmkPlDNKx-7" edge="1">
                    &#xa;
                    <mxGeometry relative="1" as="geometry"/>
                    &#xa;
                </mxCell>
                &#xa;
                <mxCell id="XhhwrtuDSf7FmkPlDNKx-19" style="edgeStyle=orthogonalEdgeStyle;rounded=0;orthogonalLoop=1;jettySize=auto;html=1;exitX=0.75;exitY=0;exitDx=0;exitDy=0;entryX=0;entryY=0.5;entryDx=0;entryDy=0;" parent="XhhwrtuDSf7FmkPlDNKx-1" source="XhhwrtuDSf7FmkPlDNKx-17" target="XhhwrtuDSf7FmkPlDNKx-8" edge="1">
                    &#xa;
                    <mxGeometry relative="1" as="geometry"/>
                    &#xa;
                </mxCell>
                &#xa;
                <mxCell id="XhhwrtuDSf7FmkPlDNKx-20" style="edgeStyle=orthogonalEdgeStyle;rounded=0;orthogonalLoop=1;jettySize=auto;html=1;exitX=1;exitY=0.5;exitDx=0;exitDy=0;" parent="XhhwrtuDSf7FmkPlDNKx-1" source="XhhwrtuDSf7FmkPlDNKx-17" target="XhhwrtuDSf7FmkPlDNKx-9" edge="1">
                    &#xa;
                    <mxGeometry relative="1" as="geometry"/>
                    &#xa;
                </mxCell>
                &#xa;
                <mxCell id="XhhwrtuDSf7FmkPlDNKx-21" style="edgeStyle=orthogonalEdgeStyle;rounded=0;orthogonalLoop=1;jettySize=auto;html=1;exitX=0.5;exitY=1;exitDx=0;exitDy=0;entryX=0;entryY=0.5;entryDx=0;entryDy=0;" parent="XhhwrtuDSf7FmkPlDNKx-1" source="XhhwrtuDSf7FmkPlDNKx-17" target="XhhwrtuDSf7FmkPlDNKx-11" edge="1">
                    &#xa;
                    <mxGeometry relative="1" as="geometry"/>
                    &#xa;
                </mxCell>
                &#xa;
                <mxCell id="XhhwrtuDSf7FmkPlDNKx-23" style="edgeStyle=orthogonalEdgeStyle;rounded=0;orthogonalLoop=1;jettySize=auto;html=1;exitX=0.75;exitY=1;exitDx=0;exitDy=0;entryX=0;entryY=0.5;entryDx=0;entryDy=0;" parent="XhhwrtuDSf7FmkPlDNKx-1" source="XhhwrtuDSf7FmkPlDNKx-17" target="XhhwrtuDSf7FmkPlDNKx-10" edge="1">
                    &#xa;
                    <mxGeometry relative="1" as="geometry"/>
                    &#xa;
                </mxCell>
                &#xa;
                <mxCell id="XhhwrtuDSf7FmkPlDNKx-17" value="&lt;h1&gt;Tables&lt;/h1&gt;" style="rounded=0;whiteSpace=wrap;html=1;fillColor=none;strokeColor=#FFFFFF;" parent="XhhwrtuDSf7FmkPlDNKx-1" vertex="1">
                    &#xa;
                    <mxGeometry x="61" y="426" width="120" height="60" as="geometry"/>
                    &#xa;
                </mxCell>
                &#xa;
            </root>
            &#xa;
        </mxGraphModel>
        &#xa;
    </diagram>
    <diagram id="Et_u4tEHgQ4iajQH616b" name="Page-3">
        <mxGraphModel dx="1986" dy="1191" grid="0" gridSize="10" guides="1" tooltips="1" connect="1" arrows="1" fold="1" page="1" pageScale="1" pageWidth="1920" pageHeight="1200" math="0" shadow="0">
            <root>
                <mxCell id="PdjYaGKtNU78nikSs9ej-0"/>
                <mxCell id="PdjYaGKtNU78nikSs9ej-1" parent="PdjYaGKtNU78nikSs9ej-0"/>
                <mxCell id="PdjYaGKtNU78nikSs9ej-13" value="" style="strokeWidth=1;shadow=0;dashed=0;align=center;html=1;shape=mxgraph.mockup.containers.browserWindow;rSize=0;strokeColor=#666666;strokeColor2=#008cff;strokeColor3=#c4c4c4;mainText=,;recursiveResize=0;" vertex="1" parent="PdjYaGKtNU78nikSs9ej-1">
                    <mxGeometry x="36" y="179" width="861" height="790" as="geometry"/>
                </mxCell>
                <mxCell id="PdjYaGKtNU78nikSs9ej-14" value="Page 1" style="strokeWidth=1;shadow=0;dashed=0;align=center;html=1;shape=mxgraph.mockup.containers.anchor;fontSize=17;fontColor=#666666;align=left;" vertex="1" parent="PdjYaGKtNU78nikSs9ej-13">
                    <mxGeometry x="60" y="12" width="110" height="26" as="geometry"/>
                </mxCell>
                <mxCell id="PdjYaGKtNU78nikSs9ej-15" value="https://www.draw.io" style="strokeWidth=1;shadow=0;dashed=0;align=center;html=1;shape=mxgraph.mockup.containers.anchor;rSize=0;fontSize=17;fontColor=#666666;align=left;" vertex="1" parent="PdjYaGKtNU78nikSs9ej-13">
                    <mxGeometry x="130" y="60" width="250" height="26" as="geometry"/>
                </mxCell>
                <mxCell id="PdjYaGKtNU78nikSs9ej-19" value="&lt;font color=&quot;#000000&quot;&gt;LOGOUT&lt;/font&gt;" style="strokeWidth=1;shadow=0;dashed=0;align=center;html=1;shape=mxgraph.mockup.buttons.button;strokeColor=#6c8ebf;mainText=;buttonStyle=round;fontSize=17;fontStyle=1;whiteSpace=wrap;fillColor=#dae8fc;" vertex="1" parent="PdjYaGKtNU78nikSs9ej-13">
                    <mxGeometry x="728" y="134" width="93" height="34" as="geometry"/>
                </mxCell>
                <mxCell id="PdjYaGKtNU78nikSs9ej-20" value="" style="verticalLabelPosition=bottom;shadow=0;dashed=0;align=center;html=1;verticalAlign=top;strokeWidth=1;shape=mxgraph.mockup.graphics.lineChart;strokeColor=none;strokeColor2=#666666;strokeColor3=#008cff;strokeColor4=#dddddd;fillColor=#2a2a2a;gradientColor=none;" vertex="1" parent="PdjYaGKtNU78nikSs9ej-13">
                    <mxGeometry x="230.5" y="295" width="400" height="200" as="geometry"/>
                </mxCell>
                <mxCell id="PdjYaGKtNU78nikSs9ej-16" value="" style="strokeWidth=1;shadow=0;dashed=0;align=center;html=1;shape=mxgraph.mockup.containers.browserWindow;rSize=0;strokeColor=#666666;strokeColor2=#008cff;strokeColor3=#c4c4c4;mainText=,;recursiveResize=0;" vertex="1" parent="PdjYaGKtNU78nikSs9ej-1">
                    <mxGeometry x="1034" y="179" width="861" height="790" as="geometry"/>
                </mxCell>
                <mxCell id="PdjYaGKtNU78nikSs9ej-17" value="Page 1" style="strokeWidth=1;shadow=0;dashed=0;align=center;html=1;shape=mxgraph.mockup.containers.anchor;fontSize=17;fontColor=#666666;align=left;" vertex="1" parent="PdjYaGKtNU78nikSs9ej-16">
                    <mxGeometry x="60" y="12" width="110" height="26" as="geometry"/>
                </mxCell>
                <mxCell id="PdjYaGKtNU78nikSs9ej-18" value="https://www.draw.io" style="strokeWidth=1;shadow=0;dashed=0;align=center;html=1;shape=mxgraph.mockup.containers.anchor;rSize=0;fontSize=17;fontColor=#666666;align=left;" vertex="1" parent="PdjYaGKtNU78nikSs9ej-16">
                    <mxGeometry x="130" y="60" width="250" height="26" as="geometry"/>
                </mxCell>
            </root>
        </mxGraphModel>
    </diagram>
</mxfile>